<svg xmlns="http://www.w3.org/2000/svg">
<title>abstract-dots</title>
<symbol id="abstract-dots-4" viewBox="0 0 200 100">
<g>
<ellipse class="cls-1" cx="2.45" cy="2.44" rx="2.45" ry="2.44"/><ellipse class="cls-1" cx="18.3" cy="2.44" rx="2.45" ry="2.44"/><ellipse class="cls-1" cx="34.15" cy="2.44" rx="2.45" ry="2.44"/><ellipse class="cls-1" cx="50" cy="2.44" rx="2.45" ry="2.44"/><ellipse class="cls-1" cx="65.85" cy="2.44" rx="2.45" ry="2.44"/><ellipse class="cls-1" cx="81.7" cy="2.44" rx="2.45" ry="2.44"/><ellipse class="cls-1" cx="2.45" cy="18.29" rx="2.45" ry="2.44"/><ellipse class="cls-1" cx="18.3" cy="18.29" rx="2.45" ry="2.44"/><ellipse class="cls-1" cx="34.15" cy="18.29" rx="2.45" ry="2.44"/><ellipse class="cls-1" cx="50" cy="18.29" rx="2.45" ry="2.44"/><ellipse class="cls-1" cx="65.85" cy="18.29" rx="2.45" ry="2.44"/><ellipse class="cls-1" cx="81.7" cy="18.29" rx="2.45" ry="2.44"/><ellipse class="cls-1" cx="2.45" cy="34.15" rx="2.45" ry="2.44"/><ellipse class="cls-1" cx="18.3" cy="34.15" rx="2.45" ry="2.44"/><ellipse class="cls-1" cx="34.15" cy="34.15" rx="2.45" ry="2.44"/><ellipse class="cls-1" cx="50" cy="34.15" rx="2.45" ry="2.44"/><ellipse class="cls-1" cx="65.85" cy="34.15" rx="2.45" ry="2.44"/><ellipse class="cls-1" cx="81.7" cy="34.15" rx="2.45" ry="2.44"/><ellipse class="cls-1" cx="2.45" cy="50" rx="2.45" ry="2.44"/><ellipse class="cls-1" cx="18.3" cy="50" rx="2.45" ry="2.44"/><ellipse class="cls-1" cx="34.15" cy="50" rx="2.45" ry="2.44"/><ellipse class="cls-1" cx="50" cy="50" rx="2.45" ry="2.44"/><ellipse class="cls-1" cx="65.85" cy="50" rx="2.45" ry="2.44"/><ellipse class="cls-1" cx="81.7" cy="50" rx="2.45" ry="2.44"/><ellipse class="cls-1" cx="2.45" cy="65.85" rx="2.45" ry="2.44"/><ellipse class="cls-1" cx="18.3" cy="65.85" rx="2.45" ry="2.44"/><ellipse class="cls-1" cx="34.15" cy="65.85" rx="2.45" ry="2.44"/><ellipse class="cls-1" cx="50" cy="65.85" rx="2.45" ry="2.44"/><ellipse class="cls-1" cx="65.85" cy="65.85" rx="2.45" ry="2.44"/><ellipse class="cls-1" cx="81.7" cy="65.85" rx="2.45" ry="2.44"/><ellipse class="cls-1" cx="2.45" cy="81.71" rx="2.45" ry="2.44"/><ellipse class="cls-1" cx="18.3" cy="81.71" rx="2.45" ry="2.44"/><ellipse class="cls-1" cx="34.15" cy="81.71" rx="2.45" ry="2.44"/><ellipse class="cls-1" cx="50" cy="81.71" rx="2.45" ry="2.44"/><ellipse class="cls-1" cx="65.85" cy="81.71" rx="2.45" ry="2.44"/><ellipse class="cls-1" cx="81.7" cy="81.71" rx="2.45" ry="2.44"/><ellipse class="cls-1" cx="2.45" cy="97.56" rx="2.45" ry="2.44"/><ellipse class="cls-1" cx="18.3" cy="97.56" rx="2.45" ry="2.44"/><ellipse class="cls-1" cx="34.15" cy="97.56" rx="2.45" ry="2.44"/><ellipse class="cls-1" cx="50" cy="97.56" rx="2.45" ry="2.44"/><ellipse class="cls-1" cx="65.85" cy="97.56" rx="2.45" ry="2.44"/><ellipse class="cls-1" cx="81.7" cy="97.56" rx="2.45" ry="2.44"/><ellipse class="cls-1" cx="97.55" cy="2.44" rx="2.45" ry="2.44"/><ellipse class="cls-1" cx="97.55" cy="18.29" rx="2.45" ry="2.44"/><ellipse class="cls-1" cx="97.55" cy="34.15" rx="2.45" ry="2.44"/><ellipse class="cls-1" cx="97.55" cy="50" rx="2.45" ry="2.44"/><ellipse class="cls-1" cx="97.55" cy="65.85" rx="2.45" ry="2.44"/><ellipse class="cls-1" cx="97.55" cy="81.71" rx="2.45" ry="2.44"/><ellipse class="cls-1" cx="97.55" cy="97.56" rx="2.45" ry="2.44"/><ellipse class="cls-1" cx="114.21" cy="2.44" rx="2.45" ry="2.44"/><ellipse class="cls-1" cx="114.21" cy="18.29" rx="2.45" ry="2.44"/><ellipse class="cls-1" cx="114.21" cy="34.15" rx="2.45" ry="2.44"/><ellipse class="cls-1" cx="114.21" cy="50" rx="2.45" ry="2.44"/><ellipse class="cls-1" cx="114.21" cy="65.85" rx="2.45" ry="2.44"/><ellipse class="cls-1" cx="114.21" cy="81.71" rx="2.45" ry="2.44"/><ellipse class="cls-1" cx="114.21" cy="97.56" rx="2.45" ry="2.44"/><ellipse class="cls-1" cx="130.88" cy="2.44" rx="2.45" ry="2.44"/><ellipse class="cls-1" cx="130.88" cy="18.29" rx="2.45" ry="2.44"/><ellipse class="cls-1" cx="130.88" cy="34.15" rx="2.45" ry="2.44"/><ellipse class="cls-1" cx="130.88" cy="50" rx="2.45" ry="2.44"/><ellipse class="cls-1" cx="130.88" cy="65.85" rx="2.45" ry="2.44"/><ellipse class="cls-1" cx="130.88" cy="81.71" rx="2.45" ry="2.44"/><ellipse class="cls-1" cx="130.88" cy="97.56" rx="2.45" ry="2.44"/><ellipse class="cls-1" cx="147.55" cy="2.44" rx="2.45" ry="2.44"/><ellipse class="cls-1" cx="147.55" cy="18.29" rx="2.45" ry="2.44"/><ellipse class="cls-1" cx="147.55" cy="34.15" rx="2.45" ry="2.44"/><ellipse class="cls-1" cx="147.55" cy="50" rx="2.45" ry="2.44"/><ellipse class="cls-1" cx="147.55" cy="65.85" rx="2.45" ry="2.44"/><ellipse class="cls-1" cx="147.55" cy="81.71" rx="2.45" ry="2.44"/><ellipse class="cls-1" cx="147.55" cy="97.56" rx="2.45" ry="2.44"/><ellipse class="cls-1" cx="164.21" cy="2.44" rx="2.45" ry="2.44"/><ellipse class="cls-1" cx="164.21" cy="18.29" rx="2.45" ry="2.44"/><ellipse class="cls-1" cx="164.21" cy="34.15" rx="2.45" ry="2.44"/><ellipse class="cls-1" cx="164.21" cy="50" rx="2.45" ry="2.44"/><ellipse class="cls-1" cx="164.21" cy="65.85" rx="2.45" ry="2.44"/><ellipse class="cls-1" cx="164.21" cy="81.71" rx="2.45" ry="2.44"/><ellipse class="cls-1" cx="164.21" cy="97.56" rx="2.45" ry="2.44"/><ellipse class="cls-1" cx="180.88" cy="2.44" rx="2.45" ry="2.44"/><ellipse class="cls-1" cx="180.88" cy="18.29" rx="2.45" ry="2.44"/><ellipse class="cls-1" cx="180.88" cy="34.15" rx="2.45" ry="2.44"/><ellipse class="cls-1" cx="180.88" cy="50" rx="2.45" ry="2.44"/><ellipse class="cls-1" cx="180.88" cy="65.85" rx="2.45" ry="2.44"/><ellipse class="cls-1" cx="180.88" cy="81.71" rx="2.45" ry="2.44"/><ellipse class="cls-1" cx="180.88" cy="97.56" rx="2.45" ry="2.44"/><ellipse class="cls-1" cx="197.55" cy="2.44" rx="2.45" ry="2.44"/><ellipse class="cls-1" cx="197.55" cy="18.29" rx="2.45" ry="2.44"/><ellipse class="cls-1" cx="197.55" cy="34.15" rx="2.45" ry="2.44"/><ellipse class="cls-1" cx="197.55" cy="50" rx="2.45" ry="2.44"/><ellipse class="cls-1" cx="197.55" cy="65.85" rx="2.45" ry="2.44"/><ellipse class="cls-1" cx="197.55" cy="81.71" rx="2.45" ry="2.44"/><ellipse class="cls-1" cx="197.55" cy="97.56" rx="2.45" ry="2.44"/></g>
</symbol>
<symbol id="abstract-dots-2" viewBox="0 0 100 100">
<g>
<ellipse class="cls-1" cx="2.45" cy="2.44" rx="2.45" ry="2.44"/><ellipse class="cls-1" cx="18.3" cy="2.44" rx="2.45" ry="2.44"/><ellipse class="cls-1" cx="34.15" cy="2.44" rx="2.45" ry="2.44"/><ellipse class="cls-1" cx="50" cy="2.44" rx="2.45" ry="2.44"/><ellipse class="cls-1" cx="65.85" cy="2.44" rx="2.45" ry="2.44"/><ellipse class="cls-1" cx="81.7" cy="2.44" rx="2.45" ry="2.44"/><ellipse class="cls-1" cx="2.45" cy="18.29" rx="2.45" ry="2.44"/><ellipse class="cls-1" cx="18.3" cy="18.29" rx="2.45" ry="2.44"/><ellipse class="cls-1" cx="34.15" cy="18.29" rx="2.45" ry="2.44"/><ellipse class="cls-1" cx="50" cy="18.29" rx="2.45" ry="2.44"/><ellipse class="cls-1" cx="65.85" cy="18.29" rx="2.45" ry="2.44"/><ellipse class="cls-1" cx="81.7" cy="18.29" rx="2.45" ry="2.44"/><ellipse class="cls-1" cx="2.45" cy="34.15" rx="2.45" ry="2.44"/><ellipse class="cls-1" cx="18.3" cy="34.15" rx="2.45" ry="2.44"/><ellipse class="cls-1" cx="34.15" cy="34.15" rx="2.45" ry="2.44"/><ellipse class="cls-1" cx="50" cy="34.15" rx="2.45" ry="2.44"/><ellipse class="cls-1" cx="65.85" cy="34.15" rx="2.45" ry="2.44"/><ellipse class="cls-1" cx="81.7" cy="34.15" rx="2.45" ry="2.44"/><ellipse class="cls-1" cx="2.45" cy="50" rx="2.45" ry="2.44"/><ellipse class="cls-1" cx="18.3" cy="50" rx="2.45" ry="2.44"/><ellipse class="cls-1" cx="34.15" cy="50" rx="2.45" ry="2.44"/><ellipse class="cls-1" cx="50" cy="50" rx="2.45" ry="2.44"/><ellipse class="cls-1" cx="65.85" cy="50" rx="2.45" ry="2.44"/><ellipse class="cls-1" cx="81.7" cy="50" rx="2.45" ry="2.44"/><ellipse class="cls-1" cx="2.45" cy="65.85" rx="2.45" ry="2.44"/><ellipse class="cls-1" cx="18.3" cy="65.85" rx="2.45" ry="2.44"/><ellipse class="cls-1" cx="34.15" cy="65.85" rx="2.45" ry="2.44"/><ellipse class="cls-1" cx="50" cy="65.85" rx="2.45" ry="2.44"/><ellipse class="cls-1" cx="65.85" cy="65.85" rx="2.45" ry="2.44"/><ellipse class="cls-1" cx="81.7" cy="65.85" rx="2.45" ry="2.44"/><ellipse class="cls-1" cx="2.45" cy="81.71" rx="2.45" ry="2.44"/><ellipse class="cls-1" cx="18.3" cy="81.71" rx="2.45" ry="2.44"/><ellipse class="cls-1" cx="34.15" cy="81.71" rx="2.45" ry="2.44"/><ellipse class="cls-1" cx="50" cy="81.71" rx="2.45" ry="2.44"/><ellipse class="cls-1" cx="65.85" cy="81.71" rx="2.45" ry="2.44"/><ellipse class="cls-1" cx="81.7" cy="81.71" rx="2.45" ry="2.44"/><ellipse class="cls-1" cx="2.45" cy="97.56" rx="2.45" ry="2.44"/><ellipse class="cls-1" cx="18.3" cy="97.56" rx="2.45" ry="2.44"/><ellipse class="cls-1" cx="34.15" cy="97.56" rx="2.45" ry="2.44"/><ellipse class="cls-1" cx="50" cy="97.56" rx="2.45" ry="2.44"/><ellipse class="cls-1" cx="65.85" cy="97.56" rx="2.45" ry="2.44"/><ellipse class="cls-1" cx="81.7" cy="97.56" rx="2.45" ry="2.44"/><ellipse class="cls-1" cx="97.55" cy="2.44" rx="2.45" ry="2.44"/><ellipse class="cls-1" cx="97.55" cy="18.29" rx="2.45" ry="2.44"/><ellipse class="cls-1" cx="97.55" cy="34.15" rx="2.45" ry="2.44"/><ellipse class="cls-1" cx="97.55" cy="50" rx="2.45" ry="2.44"/><ellipse class="cls-1" cx="97.55" cy="65.85" rx="2.45" ry="2.44"/><ellipse class="cls-1" cx="97.55" cy="81.71" rx="2.45" ry="2.44"/><ellipse class="cls-1" cx="97.55" cy="97.56" rx="2.45" ry="2.44"/><ellipse class="cls-1" cx="114.21" cy="2.44" rx="2.45" ry="2.44"/><ellipse class="cls-1" cx="114.21" cy="18.29" rx="2.45" ry="2.44"/><ellipse class="cls-1" cx="114.21" cy="34.15" rx="2.45" ry="2.44"/><ellipse class="cls-1" cx="114.21" cy="50" rx="2.45" ry="2.44"/><ellipse class="cls-1" cx="114.21" cy="65.85" rx="2.45" ry="2.44"/><ellipse class="cls-1" cx="114.21" cy="81.71" rx="2.45" ry="2.44"/><ellipse class="cls-1" cx="114.21" cy="97.56" rx="2.45" ry="2.44"/><ellipse class="cls-1" cx="130.88" cy="2.44" rx="2.45" ry="2.44"/><ellipse class="cls-1" cx="130.88" cy="18.29" rx="2.45" ry="2.44"/><ellipse class="cls-1" cx="130.88" cy="34.15" rx="2.45" ry="2.44"/><ellipse class="cls-1" cx="130.88" cy="50" rx="2.45" ry="2.44"/><ellipse class="cls-1" cx="130.88" cy="65.85" rx="2.45" ry="2.44"/><ellipse class="cls-1" cx="130.88" cy="81.71" rx="2.45" ry="2.44"/><ellipse class="cls-1" cx="130.88" cy="97.56" rx="2.45" ry="2.44"/><ellipse class="cls-1" cx="147.55" cy="2.44" rx="2.45" ry="2.44"/><ellipse class="cls-1" cx="147.55" cy="18.29" rx="2.45" ry="2.44"/><ellipse class="cls-1" cx="147.55" cy="34.15" rx="2.45" ry="2.44"/><ellipse class="cls-1" cx="147.55" cy="50" rx="2.45" ry="2.44"/><ellipse class="cls-1" cx="147.55" cy="65.85" rx="2.45" ry="2.44"/><ellipse class="cls-1" cx="147.55" cy="81.71" rx="2.45" ry="2.44"/><ellipse class="cls-1" cx="147.55" cy="97.56" rx="2.45" ry="2.44"/><ellipse class="cls-1" cx="164.21" cy="2.44" rx="2.45" ry="2.44"/><ellipse class="cls-1" cx="164.21" cy="18.29" rx="2.45" ry="2.44"/><ellipse class="cls-1" cx="164.21" cy="34.15" rx="2.45" ry="2.44"/><ellipse class="cls-1" cx="164.21" cy="50" rx="2.45" ry="2.44"/><ellipse class="cls-1" cx="164.21" cy="65.85" rx="2.45" ry="2.44"/><ellipse class="cls-1" cx="164.21" cy="81.71" rx="2.45" ry="2.44"/><ellipse class="cls-1" cx="164.21" cy="97.56" rx="2.45" ry="2.44"/><ellipse class="cls-1" cx="180.88" cy="2.44" rx="2.45" ry="2.44"/><ellipse class="cls-1" cx="180.88" cy="18.29" rx="2.45" ry="2.44"/><ellipse class="cls-1" cx="180.88" cy="34.15" rx="2.45" ry="2.44"/><ellipse class="cls-1" cx="180.88" cy="50" rx="2.45" ry="2.44"/><ellipse class="cls-1" cx="180.88" cy="65.85" rx="2.45" ry="2.44"/><ellipse class="cls-1" cx="180.88" cy="81.71" rx="2.45" ry="2.44"/><ellipse class="cls-1" cx="180.88" cy="97.56" rx="2.45" ry="2.44"/><ellipse class="cls-1" cx="197.55" cy="2.44" rx="2.45" ry="2.44"/><ellipse class="cls-1" cx="197.55" cy="18.29" rx="2.45" ry="2.44"/><ellipse class="cls-1" cx="197.55" cy="34.15" rx="2.45" ry="2.44"/><ellipse class="cls-1" cx="197.55" cy="50" rx="2.45" ry="2.44"/><ellipse class="cls-1" cx="197.55" cy="65.85" rx="2.45" ry="2.44"/><ellipse class="cls-1" cx="197.55" cy="81.71" rx="2.45" ry="2.44"/><ellipse class="cls-1" cx="197.55" cy="97.56" rx="2.45" ry="2.44"/></g>
</symbol>
<symbol id="abstract-dots" viewBox="0 0 410 410">
<circle class="cls-1" cx="10" cy="10" r="10"/>
<circle class="cls-1" cx="45.45" cy="10" r="10"/>
<circle class="cls-1" cx="80.91" cy="10" r="10"/>
<circle class="cls-1" cx="116.36" cy="10" r="10"/>
<circle class="cls-1" cx="151.82" cy="10" r="10"/>
<circle class="cls-1" cx="187.27" cy="10" r="10"/>
<circle class="cls-1" cx="222.73" cy="10" r="10"/>
<circle class="cls-1" cx="258.18" cy="10" r="10"/>
<circle class="cls-1" cx="293.64" cy="10" r="10"/>
<circle class="cls-1" cx="329.09" cy="10" r="10"/>
<circle class="cls-1" cx="364.55" cy="10" r="10"/>
<circle class="cls-1" cx="400" cy="10" r="10"/>
<circle class="cls-1" cx="10" cy="45.45" r="10"/>
<circle class="cls-1" cx="45.45" cy="45.45" r="10"/>
<circle class="cls-1" cx="80.91" cy="45.45" r="10"/>
<circle class="cls-1" cx="116.36" cy="45.45" r="10"/>
<circle class="cls-1" cx="151.82" cy="45.45" r="10"/>
<circle class="cls-1" cx="187.27" cy="45.45" r="10"/>
<circle class="cls-1" cx="222.73" cy="45.45" r="10"/>
<circle class="cls-1" cx="258.18" cy="45.45" r="10"/>
<circle class="cls-1" cx="293.64" cy="45.45" r="10"/>
<circle class="cls-1" cx="329.09" cy="45.45" r="10"/>
<circle class="cls-1" cx="364.55" cy="45.45" r="10"/>
<circle class="cls-1" cx="400" cy="45.45" r="10"/>
<circle class="cls-1" cx="10" cy="80.91" r="10"/>
<circle class="cls-1" cx="45.45" cy="80.91" r="10"/>
<circle class="cls-1" cx="80.91" cy="80.91" r="10"/>
<circle class="cls-1" cx="116.36" cy="80.91" r="10"/>
<circle class="cls-1" cx="151.82" cy="80.91" r="10"/>
<circle class="cls-1" cx="187.27" cy="80.91" r="10"/>
<circle class="cls-1" cx="222.73" cy="80.91" r="10"/>
<circle class="cls-1" cx="258.18" cy="80.91" r="10"/>
<circle class="cls-1" cx="293.64" cy="80.91" r="10"/>
<circle class="cls-1" cx="329.09" cy="80.91" r="10"/>
<circle class="cls-1" cx="364.55" cy="80.91" r="10"/>
<circle class="cls-1" cx="400" cy="80.91" r="10"/>
<circle class="cls-1" cx="10" cy="116.36" r="10"/>
<circle class="cls-1" cx="45.45" cy="116.36" r="10"/>
<circle class="cls-1" cx="80.91" cy="116.36" r="10"/>
<circle class="cls-1" cx="116.36" cy="116.36" r="10"/>
<circle class="cls-1" cx="151.82" cy="116.36" r="10"/>
<circle class="cls-1" cx="187.27" cy="116.36" r="10"/>
<circle class="cls-1" cx="222.73" cy="116.36" r="10"/>
<circle class="cls-1" cx="258.18" cy="116.36" r="10"/>
<circle class="cls-1" cx="293.64" cy="116.36" r="10"/>
<circle class="cls-1" cx="329.09" cy="116.36" r="10"/>
<circle class="cls-1" cx="364.55" cy="116.36" r="10"/>
<circle class="cls-1" cx="400" cy="116.36" r="10"/>
<circle class="cls-1" cx="10" cy="151.82" r="10"/>
<circle class="cls-1" cx="45.45" cy="151.82" r="10"/>
<circle class="cls-1" cx="80.91" cy="151.82" r="10"/>
<circle class="cls-1" cx="116.36" cy="151.82" r="10"/>
<circle class="cls-1" cx="151.82" cy="151.82" r="10"/>
<circle class="cls-1" cx="187.27" cy="151.82" r="10"/>
<circle class="cls-1" cx="222.73" cy="151.82" r="10"/>
<circle class="cls-1" cx="258.18" cy="151.82" r="10"/>
<circle class="cls-1" cx="293.64" cy="151.82" r="10"/>
<circle class="cls-1" cx="329.09" cy="151.82" r="10"/>
<circle class="cls-1" cx="364.55" cy="151.82" r="10"/>
<circle class="cls-1" cx="400" cy="151.82" r="10"/>
<circle class="cls-1" cx="10" cy="187.27" r="10"/>
<circle class="cls-1" cx="45.45" cy="187.27" r="10"/>
<circle class="cls-1" cx="80.91" cy="187.27" r="10"/>
<circle class="cls-1" cx="116.36" cy="187.27" r="10"/>
<circle class="cls-1" cx="151.82" cy="187.27" r="10"/>
<circle class="cls-1" cx="187.27" cy="187.27" r="10"/>
<circle class="cls-1" cx="222.73" cy="187.27" r="10"/>
<circle class="cls-1" cx="258.18" cy="187.27" r="10"/>
<circle class="cls-1" cx="293.64" cy="187.27" r="10"/>
<circle class="cls-1" cx="329.09" cy="187.27" r="10"/>
<circle class="cls-1" cx="364.55" cy="187.27" r="10"/>
<circle class="cls-1" cx="400" cy="187.27" r="10"/>
<circle class="cls-1" cx="10" cy="222.73" r="10"/>
<circle class="cls-1" cx="45.45" cy="222.73" r="10"/>
<circle class="cls-1" cx="80.91" cy="222.73" r="10"/>
<circle class="cls-1" cx="116.36" cy="222.73" r="10"/>
<circle class="cls-1" cx="151.82" cy="222.73" r="10"/>
<circle class="cls-1" cx="187.27" cy="222.73" r="10"/>
<circle class="cls-1" cx="222.73" cy="222.73" r="10"/>
<circle class="cls-1" cx="258.18" cy="222.73" r="10"/>
<circle class="cls-1" cx="293.64" cy="222.73" r="10"/>
<circle class="cls-1" cx="329.09" cy="222.73" r="10"/>
<circle class="cls-1" cx="364.55" cy="222.73" r="10"/>
<circle class="cls-1" cx="400" cy="222.73" r="10"/>
<circle class="cls-1" cx="10" cy="258.18" r="10"/>
<circle class="cls-1" cx="45.45" cy="258.18" r="10"/>
<circle class="cls-1" cx="80.91" cy="258.18" r="10"/>
<circle class="cls-1" cx="116.36" cy="258.18" r="10"/>
<circle class="cls-1" cx="151.82" cy="258.18" r="10"/>
<circle class="cls-1" cx="187.27" cy="258.18" r="10"/>
<circle class="cls-1" cx="222.73" cy="258.18" r="10"/>
<circle class="cls-1" cx="258.18" cy="258.18" r="10"/>
<circle class="cls-1" cx="293.64" cy="258.18" r="10"/>
<circle class="cls-1" cx="329.09" cy="258.18" r="10"/>
<circle class="cls-1" cx="364.55" cy="258.18" r="10"/>
<circle class="cls-1" cx="400" cy="258.18" r="10"/>
<circle class="cls-1" cx="10" cy="293.64" r="10"/>
<circle class="cls-1" cx="45.45" cy="293.64" r="10"/>
<circle class="cls-1" cx="80.91" cy="293.64" r="10"/>
<circle class="cls-1" cx="116.36" cy="293.64" r="10"/>
<circle class="cls-1" cx="151.82" cy="293.64" r="10"/>
<circle class="cls-1" cx="187.27" cy="293.64" r="10"/>
<circle class="cls-1" cx="222.73" cy="293.64" r="10"/>
<circle class="cls-1" cx="258.18" cy="293.64" r="10"/>
<circle class="cls-1" cx="293.64" cy="293.64" r="10"/>
<circle class="cls-1" cx="329.09" cy="293.64" r="10"/>
<circle class="cls-1" cx="364.55" cy="293.64" r="10"/>
<circle class="cls-1" cx="400" cy="293.64" r="10"/>
<circle class="cls-1" cx="10" cy="329.09" r="10"/>
<circle class="cls-1" cx="45.45" cy="329.09" r="10"/>
<circle class="cls-1" cx="80.91" cy="329.09" r="10"/>
<circle class="cls-1" cx="116.36" cy="329.09" r="10"/>
<circle class="cls-1" cx="151.82" cy="329.09" r="10"/>
<circle class="cls-1" cx="187.27" cy="329.09" r="10"/>
<circle class="cls-1" cx="222.73" cy="329.09" r="10"/>
<circle class="cls-1" cx="258.18" cy="329.09" r="10"/>
<circle class="cls-1" cx="293.64" cy="329.09" r="10"/>
<circle class="cls-1" cx="329.09" cy="329.09" r="10"/>
<circle class="cls-1" cx="364.55" cy="329.09" r="10"/>
<circle class="cls-1" cx="400" cy="329.09" r="10"/>
<circle class="cls-1" cx="10" cy="364.55" r="10"/>
<circle class="cls-1" cx="45.45" cy="364.55" r="10"/>
<circle class="cls-1" cx="80.91" cy="364.55" r="10"/>
<circle id="disc" class="cls-1" cx="116.36" cy="364.55" r="10"/>
<circle id="disc-2" data-name="disc" class="cls-1" cx="151.82" cy="364.55" r="10"/>
<circle id="disc-3" data-name="disc" class="cls-1" cx="187.27" cy="364.55" r="10"/>
<circle id="disc-4" data-name="disc" class="cls-1" cx="222.73" cy="364.55" r="10"/>
<circle id="disc-5" data-name="disc" class="cls-1" cx="258.18" cy="364.55" r="10"/>
<circle id="disc-6" data-name="disc" class="cls-1" cx="293.64" cy="364.55" r="10"/>
<circle id="disc-7" data-name="disc" class="cls-1" cx="329.09" cy="364.55" r="10"/>
<circle id="disc-8" data-name="disc" class="cls-1" cx="364.55" cy="364.55" r="10"/>
<circle id="disc-9" data-name="disc" class="cls-1" cx="400" cy="364.55" r="10"/>
<circle id="disc-10" data-name="disc" class="cls-1" cx="10" cy="400" r="10"/>
<circle id="disc-11" data-name="disc" class="cls-1" cx="45.45" cy="400" r="10"/>
<circle id="disc-12" data-name="disc" class="cls-1" cx="80.91" cy="400" r="10"/>
<circle id="disc-13" data-name="disc" class="cls-1" cx="116.36" cy="400" r="10"/>
<circle id="disc-14" data-name="disc" class="cls-1" cx="151.82" cy="400" r="10"/>
<circle id="disc-15" data-name="disc" class="cls-1" cx="187.27" cy="400" r="10"/>
<circle id="disc-16" data-name="disc" class="cls-1" cx="222.73" cy="400" r="10"/>
<circle id="disc-17" data-name="disc" class="cls-1" cx="258.18" cy="400" r="10"/>
<circle id="disc-18" data-name="disc" class="cls-1" cx="293.64" cy="400" r="10"/>
<circle id="disc-19" data-name="disc" class="cls-1" cx="329.09" cy="400" r="10"/>
<circle id="disk" class="cls-1" cx="364.55" cy="400" r="10"/>
<circle id="disk-2" data-name="disk" class="cls-1" cx="400" cy="400" r="10"/>
</symbol>
</svg>