<?xml version="1.0" encoding="UTF-8"?><!DOCTYPE svg PUBLIC "-//W3C//DTD SVG 1.1//EN" "http://www.w3.org/Graphics/SVG/1.1/DTD/svg11.dtd"><svg xmlns="http://www.w3.org/2000/svg" xmlns:xlink="http://www.w3.org/1999/xlink"><defs><style>.cls-1{fill:#231f20;}</style><style>.cls-1{fill:#231f20;}</style><style>.a{clip-path:url(#b);}</style><clipPath id="b"><rect width="100" height="100"/></clipPath><style>.cls-1{fill:#231f20;}</style></defs><symbol id="abstract-dots-2" viewBox="0 0 100 100"><title>abstract-dots</title><g id="asbtract-dots"><ellipse class="cls-1" cx="2.45" cy="2.44" rx="2.45" ry="2.44"/><ellipse class="cls-1" cx="18.3" cy="2.44" rx="2.45" ry="2.44"/><ellipse class="cls-1" cx="34.15" cy="2.44" rx="2.45" ry="2.44"/><ellipse class="cls-1" cx="50" cy="2.44" rx="2.45" ry="2.44"/><ellipse class="cls-1" cx="65.85" cy="2.44" rx="2.45" ry="2.44"/><ellipse class="cls-1" cx="81.7" cy="2.44" rx="2.45" ry="2.44"/><ellipse class="cls-1" cx="97.55" cy="2.44" rx="2.45" ry="2.44"/><ellipse class="cls-1" cx="2.45" cy="18.29" rx="2.45" ry="2.44"/><ellipse class="cls-1" cx="18.3" cy="18.29" rx="2.45" ry="2.44"/><ellipse class="cls-1" cx="34.15" cy="18.29" rx="2.45" ry="2.44"/><ellipse class="cls-1" cx="50" cy="18.29" rx="2.45" ry="2.44"/><ellipse class="cls-1" cx="65.85" cy="18.29" rx="2.45" ry="2.44"/><ellipse class="cls-1" cx="81.7" cy="18.29" rx="2.45" ry="2.44"/><ellipse class="cls-1" cx="97.55" cy="18.29" rx="2.45" ry="2.44"/><ellipse class="cls-1" cx="2.45" cy="34.15" rx="2.45" ry="2.44"/><ellipse class="cls-1" cx="18.3" cy="34.15" rx="2.45" ry="2.44"/><ellipse class="cls-1" cx="34.15" cy="34.15" rx="2.45" ry="2.44"/><ellipse class="cls-1" cx="50" cy="34.15" rx="2.45" ry="2.44"/><ellipse class="cls-1" cx="65.85" cy="34.15" rx="2.45" ry="2.44"/><ellipse class="cls-1" cx="81.7" cy="34.15" rx="2.45" ry="2.44"/><ellipse class="cls-1" cx="97.55" cy="34.15" rx="2.45" ry="2.44"/><ellipse class="cls-1" cx="2.45" cy="50" rx="2.45" ry="2.44"/><ellipse class="cls-1" cx="18.3" cy="50" rx="2.45" ry="2.44"/><ellipse class="cls-1" cx="34.15" cy="50" rx="2.45" ry="2.44"/><ellipse class="cls-1" cx="50" cy="50" rx="2.45" ry="2.44"/><ellipse class="cls-1" cx="65.85" cy="50" rx="2.45" ry="2.44"/><ellipse class="cls-1" cx="81.7" cy="50" rx="2.45" ry="2.44"/><ellipse class="cls-1" cx="97.55" cy="50" rx="2.45" ry="2.44"/><ellipse class="cls-1" cx="2.45" cy="65.85" rx="2.45" ry="2.44"/><ellipse class="cls-1" cx="18.3" cy="65.85" rx="2.45" ry="2.44"/><ellipse class="cls-1" cx="34.15" cy="65.85" rx="2.45" ry="2.44"/><ellipse class="cls-1" cx="50" cy="65.85" rx="2.45" ry="2.44"/><ellipse class="cls-1" cx="65.85" cy="65.85" rx="2.45" ry="2.44"/><ellipse class="cls-1" cx="81.7" cy="65.85" rx="2.45" ry="2.44"/><ellipse class="cls-1" cx="97.55" cy="65.85" rx="2.45" ry="2.44"/><ellipse class="cls-1" cx="2.45" cy="81.71" rx="2.45" ry="2.44"/><ellipse class="cls-1" cx="18.3" cy="81.71" rx="2.45" ry="2.44"/><ellipse class="cls-1" cx="34.15" cy="81.71" rx="2.45" ry="2.44"/><ellipse class="cls-1" cx="50" cy="81.71" rx="2.45" ry="2.44"/><ellipse class="cls-1" cx="65.85" cy="81.71" rx="2.45" ry="2.44"/><ellipse class="cls-1" cx="81.7" cy="81.71" rx="2.45" ry="2.44"/><ellipse class="cls-1" cx="97.55" cy="81.71" rx="2.45" ry="2.44"/><ellipse class="cls-1" cx="2.45" cy="97.56" rx="2.45" ry="2.44"/><ellipse class="cls-1" cx="18.3" cy="97.56" rx="2.45" ry="2.44"/><ellipse class="cls-1" cx="34.15" cy="97.56" rx="2.45" ry="2.44"/><ellipse class="cls-1" cx="50" cy="97.56" rx="2.45" ry="2.44"/><ellipse class="cls-1" cx="65.85" cy="97.56" rx="2.45" ry="2.44"/><ellipse class="cls-1" cx="81.7" cy="97.56" rx="2.45" ry="2.44"/><ellipse class="cls-1" cx="97.55" cy="97.56" rx="2.45" ry="2.44"/></g></symbol><symbol id="abstract-dots-3" viewBox="0 0 100 100"><title>abstract-dots-3</title><g id="abstract-dots-3"><circle id="disk" class="cls-1" cx="1.22" cy="1.22" r="1.22"/><circle class="cls-1" cx="10.09" cy="1.22" r="1.22"/><circle class="cls-1" cx="18.96" cy="1.22" r="1.22"/><circle class="cls-1" cx="27.83" cy="1.22" r="1.22"/><circle class="cls-1" cx="36.7" cy="1.22" r="1.22"/><circle class="cls-1" cx="45.57" cy="1.22" r="1.22"/><circle class="cls-1" cx="54.43" cy="1.22" r="1.22"/><circle class="cls-1" cx="63.3" cy="1.22" r="1.22"/><circle class="cls-1" cx="72.17" cy="1.22" r="1.22"/><circle class="cls-1" cx="81.04" cy="1.22" r="1.22"/><circle class="cls-1" cx="89.91" cy="1.22" r="1.22"/><circle id="disk-2" data-name="disk" class="cls-1" cx="98.78" cy="1.22" r="1.22"/><circle class="cls-1" cx="1.22" cy="10.09" r="1.22"/><circle class="cls-1" cx="10.09" cy="10.09" r="1.22"/><circle class="cls-1" cx="18.96" cy="10.09" r="1.22"/><circle class="cls-1" cx="27.83" cy="10.09" r="1.22"/><circle class="cls-1" cx="36.7" cy="10.09" r="1.22"/><circle class="cls-1" cx="45.57" cy="10.09" r="1.22"/><circle class="cls-1" cx="54.43" cy="10.09" r="1.22"/><circle class="cls-1" cx="63.3" cy="10.09" r="1.22"/><circle class="cls-1" cx="72.17" cy="10.09" r="1.22"/><circle class="cls-1" cx="81.04" cy="10.09" r="1.22"/><circle class="cls-1" cx="89.91" cy="10.09" r="1.22"/><circle class="cls-1" cx="98.78" cy="10.09" r="1.22"/><circle class="cls-1" cx="1.22" cy="18.96" r="1.22"/><circle class="cls-1" cx="10.09" cy="18.96" r="1.22"/><circle class="cls-1" cx="18.96" cy="18.96" r="1.22"/><circle class="cls-1" cx="27.83" cy="18.96" r="1.22"/><circle class="cls-1" cx="36.7" cy="18.96" r="1.22"/><circle class="cls-1" cx="45.57" cy="18.96" r="1.22"/><circle class="cls-1" cx="54.43" cy="18.96" r="1.22"/><circle class="cls-1" cx="63.3" cy="18.96" r="1.22"/><circle class="cls-1" cx="72.17" cy="18.96" r="1.22"/><circle class="cls-1" cx="81.04" cy="18.96" r="1.22"/><circle class="cls-1" cx="89.91" cy="18.96" r="1.22"/><circle class="cls-1" cx="98.78" cy="18.96" r="1.22"/><circle class="cls-1" cx="1.22" cy="27.83" r="1.22"/><circle class="cls-1" cx="10.09" cy="27.83" r="1.22"/><circle class="cls-1" cx="18.96" cy="27.83" r="1.22"/><circle class="cls-1" cx="27.83" cy="27.83" r="1.22"/><circle class="cls-1" cx="36.7" cy="27.83" r="1.22"/><circle class="cls-1" cx="45.57" cy="27.83" r="1.22"/><circle class="cls-1" cx="54.43" cy="27.83" r="1.22"/><circle class="cls-1" cx="63.3" cy="27.83" r="1.22"/><circle class="cls-1" cx="72.17" cy="27.83" r="1.22"/><circle class="cls-1" cx="81.04" cy="27.83" r="1.22"/><circle class="cls-1" cx="89.91" cy="27.83" r="1.22"/><circle class="cls-1" cx="98.78" cy="27.83" r="1.22"/><circle class="cls-1" cx="1.22" cy="36.7" r="1.22"/><circle class="cls-1" cx="10.09" cy="36.7" r="1.22"/><circle class="cls-1" cx="18.96" cy="36.7" r="1.22"/><circle class="cls-1" cx="27.83" cy="36.7" r="1.22"/><circle class="cls-1" cx="36.7" cy="36.7" r="1.22"/><circle class="cls-1" cx="45.57" cy="36.7" r="1.22"/><circle class="cls-1" cx="54.43" cy="36.7" r="1.22"/><circle class="cls-1" cx="63.3" cy="36.7" r="1.22"/><circle class="cls-1" cx="72.17" cy="36.7" r="1.22"/><circle class="cls-1" cx="81.04" cy="36.7" r="1.22"/><circle class="cls-1" cx="89.91" cy="36.7" r="1.22"/><circle class="cls-1" cx="98.78" cy="36.7" r="1.22"/><circle class="cls-1" cx="1.22" cy="45.57" r="1.22"/><circle class="cls-1" cx="10.09" cy="45.57" r="1.22"/><circle class="cls-1" cx="18.96" cy="45.57" r="1.22"/><circle class="cls-1" cx="27.83" cy="45.57" r="1.22"/><circle class="cls-1" cx="36.7" cy="45.57" r="1.22"/><circle class="cls-1" cx="45.57" cy="45.57" r="1.22"/><circle class="cls-1" cx="54.43" cy="45.57" r="1.22"/><circle class="cls-1" cx="63.3" cy="45.57" r="1.22"/><circle class="cls-1" cx="72.17" cy="45.57" r="1.22"/><circle class="cls-1" cx="81.04" cy="45.57" r="1.22"/><circle class="cls-1" cx="89.91" cy="45.57" r="1.22"/><circle class="cls-1" cx="98.78" cy="45.57" r="1.22"/><circle class="cls-1" cx="1.22" cy="54.43" r="1.22"/><circle class="cls-1" cx="10.09" cy="54.43" r="1.22"/><circle class="cls-1" cx="18.96" cy="54.43" r="1.22"/><circle class="cls-1" cx="27.83" cy="54.43" r="1.22"/><circle class="cls-1" cx="36.7" cy="54.43" r="1.22"/><circle class="cls-1" cx="45.57" cy="54.43" r="1.22"/><circle class="cls-1" cx="54.43" cy="54.43" r="1.22"/><circle class="cls-1" cx="63.3" cy="54.43" r="1.22"/><circle class="cls-1" cx="72.17" cy="54.43" r="1.22"/><circle class="cls-1" cx="81.04" cy="54.43" r="1.22"/><circle class="cls-1" cx="89.91" cy="54.43" r="1.22"/><circle class="cls-1" cx="98.78" cy="54.43" r="1.22"/><circle class="cls-1" cx="1.22" cy="63.3" r="1.22"/><circle class="cls-1" cx="10.09" cy="63.3" r="1.22"/><circle class="cls-1" cx="18.96" cy="63.3" r="1.22"/><circle class="cls-1" cx="27.83" cy="63.3" r="1.22"/><circle class="cls-1" cx="36.7" cy="63.3" r="1.22"/><circle class="cls-1" cx="45.57" cy="63.3" r="1.22"/><circle class="cls-1" cx="54.43" cy="63.3" r="1.22"/><circle class="cls-1" cx="63.3" cy="63.3" r="1.22"/><circle class="cls-1" cx="72.17" cy="63.3" r="1.22"/><circle class="cls-1" cx="81.04" cy="63.3" r="1.22"/><circle class="cls-1" cx="89.91" cy="63.3" r="1.22"/><circle class="cls-1" cx="98.78" cy="63.3" r="1.22"/><circle class="cls-1" cx="1.22" cy="72.17" r="1.22"/><circle class="cls-1" cx="10.09" cy="72.17" r="1.22"/><circle class="cls-1" cx="18.96" cy="72.17" r="1.22"/><circle class="cls-1" cx="27.83" cy="72.17" r="1.22"/><circle class="cls-1" cx="36.7" cy="72.17" r="1.22"/><circle class="cls-1" cx="45.57" cy="72.17" r="1.22"/><circle class="cls-1" cx="54.43" cy="72.17" r="1.22"/><circle class="cls-1" cx="63.3" cy="72.17" r="1.22"/><circle class="cls-1" cx="72.17" cy="72.17" r="1.22"/><circle class="cls-1" cx="81.04" cy="72.17" r="1.22"/><circle class="cls-1" cx="89.91" cy="72.17" r="1.22"/><circle class="cls-1" cx="98.78" cy="72.17" r="1.22"/><circle class="cls-1" cx="1.22" cy="81.04" r="1.22"/><circle class="cls-1" cx="10.09" cy="81.04" r="1.22"/><circle class="cls-1" cx="18.96" cy="81.04" r="1.22"/><circle class="cls-1" cx="27.83" cy="81.04" r="1.22"/><circle class="cls-1" cx="36.7" cy="81.04" r="1.22"/><circle class="cls-1" cx="45.57" cy="81.04" r="1.22"/><circle class="cls-1" cx="54.43" cy="81.04" r="1.22"/><circle class="cls-1" cx="63.3" cy="81.04" r="1.22"/><circle class="cls-1" cx="72.17" cy="81.04" r="1.22"/><circle class="cls-1" cx="81.04" cy="81.04" r="1.22"/><circle class="cls-1" cx="89.91" cy="81.04" r="1.22"/><circle class="cls-1" cx="98.78" cy="81.04" r="1.22"/><circle class="cls-1" cx="1.22" cy="89.91" r="1.22"/><circle class="cls-1" cx="10.09" cy="89.91" r="1.22"/><circle class="cls-1" cx="18.96" cy="89.91" r="1.22"/><circle class="cls-1" cx="27.83" cy="89.91" r="1.22"/><circle class="cls-1" cx="36.7" cy="89.91" r="1.22"/><circle class="cls-1" cx="45.57" cy="89.91" r="1.22"/><circle class="cls-1" cx="54.43" cy="89.91" r="1.22"/><circle class="cls-1" cx="63.3" cy="89.91" r="1.22"/><circle class="cls-1" cx="72.17" cy="89.91" r="1.22"/><circle class="cls-1" cx="81.04" cy="89.91" r="1.22"/><circle class="cls-1" cx="89.91" cy="89.91" r="1.22"/><circle class="cls-1" cx="98.78" cy="89.91" r="1.22"/><circle id="disk-3" data-name="disk" class="cls-1" cx="1.22" cy="98.78" r="1.22"/><circle class="cls-1" cx="10.09" cy="98.78" r="1.22"/><circle class="cls-1" cx="18.96" cy="98.78" r="1.22"/><circle class="cls-1" cx="27.83" cy="98.78" r="1.22"/><circle class="cls-1" cx="36.7" cy="98.78" r="1.22"/><circle class="cls-1" cx="45.57" cy="98.78" r="1.22"/><circle class="cls-1" cx="54.43" cy="98.78" r="1.22"/><circle class="cls-1" cx="63.3" cy="98.78" r="1.22"/><circle class="cls-1" cx="72.17" cy="98.78" r="1.22"/><circle class="cls-1" cx="81.04" cy="98.78" r="1.22"/><circle class="cls-1" cx="89.91" cy="98.78" r="1.22"/><circle id="disk-4" data-name="disk" class="cls-1" cx="98.78" cy="98.78" r="1.22"/></g></symbol><symbol id="abstract-dots-4" viewBox="0 0 100 100">
<title>abstract-dots</title><g id="abstract-dots-4"><ellipse class="cls-1" cx="2.45" cy="2.44" rx="2.45" ry="2.44"/><ellipse class="cls-1" cx="18.3" cy="2.44" rx="2.45" ry="2.44"/><ellipse class="cls-1" cx="34.15" cy="2.44" rx="2.45" ry="2.44"/><ellipse class="cls-1" cx="50" cy="2.44" rx="2.45" ry="2.44"/><ellipse class="cls-1" cx="65.85" cy="2.44" rx="2.45" ry="2.44"/><ellipse class="cls-1" cx="81.7" cy="2.44" rx="2.45" ry="2.44"/><ellipse class="cls-1" cx="2.45" cy="18.29" rx="2.45" ry="2.44"/><ellipse class="cls-1" cx="18.3" cy="18.29" rx="2.45" ry="2.44"/><ellipse class="cls-1" cx="34.15" cy="18.29" rx="2.45" ry="2.44"/><ellipse class="cls-1" cx="50" cy="18.29" rx="2.45" ry="2.44"/><ellipse class="cls-1" cx="65.85" cy="18.29" rx="2.45" ry="2.44"/><ellipse class="cls-1" cx="81.7" cy="18.29" rx="2.45" ry="2.44"/><ellipse class="cls-1" cx="2.45" cy="34.15" rx="2.45" ry="2.44"/><ellipse class="cls-1" cx="18.3" cy="34.15" rx="2.45" ry="2.44"/><ellipse class="cls-1" cx="34.15" cy="34.15" rx="2.45" ry="2.44"/><ellipse class="cls-1" cx="50" cy="34.15" rx="2.45" ry="2.44"/><ellipse class="cls-1" cx="65.85" cy="34.15" rx="2.45" ry="2.44"/><ellipse class="cls-1" cx="81.7" cy="34.15" rx="2.45" ry="2.44"/><ellipse class="cls-1" cx="2.45" cy="50" rx="2.45" ry="2.44"/><ellipse class="cls-1" cx="18.3" cy="50" rx="2.45" ry="2.44"/><ellipse class="cls-1" cx="34.15" cy="50" rx="2.45" ry="2.44"/><ellipse class="cls-1" cx="50" cy="50" rx="2.45" ry="2.44"/><ellipse class="cls-1" cx="65.85" cy="50" rx="2.45" ry="2.44"/><ellipse class="cls-1" cx="81.7" cy="50" rx="2.45" ry="2.44"/><ellipse class="cls-1" cx="2.45" cy="65.85" rx="2.45" ry="2.44"/><ellipse class="cls-1" cx="18.3" cy="65.85" rx="2.45" ry="2.44"/><ellipse class="cls-1" cx="34.15" cy="65.85" rx="2.45" ry="2.44"/><ellipse class="cls-1" cx="50" cy="65.85" rx="2.45" ry="2.44"/><ellipse class="cls-1" cx="65.85" cy="65.85" rx="2.45" ry="2.44"/><ellipse class="cls-1" cx="81.7" cy="65.85" rx="2.45" ry="2.44"/><ellipse class="cls-1" cx="2.45" cy="81.71" rx="2.45" ry="2.44"/><ellipse class="cls-1" cx="18.3" cy="81.71" rx="2.45" ry="2.44"/><ellipse class="cls-1" cx="34.15" cy="81.71" rx="2.45" ry="2.44"/><ellipse class="cls-1" cx="50" cy="81.71" rx="2.45" ry="2.44"/><ellipse class="cls-1" cx="65.85" cy="81.71" rx="2.45" ry="2.44"/><ellipse class="cls-1" cx="81.7" cy="81.71" rx="2.45" ry="2.44"/><ellipse class="cls-1" cx="2.45" cy="97.56" rx="2.45" ry="2.44"/><ellipse class="cls-1" cx="18.3" cy="97.56" rx="2.45" ry="2.44"/><ellipse class="cls-1" cx="34.15" cy="97.56" rx="2.45" ry="2.44"/><ellipse class="cls-1" cx="50" cy="97.56" rx="2.45" ry="2.44"/><ellipse class="cls-1" cx="65.85" cy="97.56" rx="2.45" ry="2.44"/><ellipse class="cls-1" cx="81.7" cy="97.56" rx="2.45" ry="2.44"/><ellipse class="cls-1" cx="97.55" cy="2.44" rx="2.45" ry="2.44"/><ellipse class="cls-1" cx="97.55" cy="18.29" rx="2.45" ry="2.44"/><ellipse class="cls-1" cx="97.55" cy="34.15" rx="2.45" ry="2.44"/><ellipse class="cls-1" cx="97.55" cy="50" rx="2.45" ry="2.44"/><ellipse class="cls-1" cx="97.55" cy="65.85" rx="2.45" ry="2.44"/><ellipse class="cls-1" cx="97.55" cy="81.71" rx="2.45" ry="2.44"/><ellipse class="cls-1" cx="97.55" cy="97.56" rx="2.45" ry="2.44"/><ellipse class="cls-1" cx="114.21" cy="2.44" rx="2.45" ry="2.44"/><ellipse class="cls-1" cx="114.21" cy="18.29" rx="2.45" ry="2.44"/><ellipse class="cls-1" cx="114.21" cy="34.15" rx="2.45" ry="2.44"/><ellipse class="cls-1" cx="114.21" cy="50" rx="2.45" ry="2.44"/><ellipse class="cls-1" cx="114.21" cy="65.85" rx="2.45" ry="2.44"/><ellipse class="cls-1" cx="114.21" cy="81.71" rx="2.45" ry="2.44"/><ellipse class="cls-1" cx="114.21" cy="97.56" rx="2.45" ry="2.44"/><ellipse class="cls-1" cx="130.88" cy="2.44" rx="2.45" ry="2.44"/><ellipse class="cls-1" cx="130.88" cy="18.29" rx="2.45" ry="2.44"/><ellipse class="cls-1" cx="130.88" cy="34.15" rx="2.45" ry="2.44"/><ellipse class="cls-1" cx="130.88" cy="50" rx="2.45" ry="2.44"/><ellipse class="cls-1" cx="130.88" cy="65.85" rx="2.45" ry="2.44"/><ellipse class="cls-1" cx="130.88" cy="81.71" rx="2.45" ry="2.44"/><ellipse class="cls-1" cx="130.88" cy="97.56" rx="2.45" ry="2.44"/><ellipse class="cls-1" cx="147.55" cy="2.44" rx="2.45" ry="2.44"/><ellipse class="cls-1" cx="147.55" cy="18.29" rx="2.45" ry="2.44"/><ellipse class="cls-1" cx="147.55" cy="34.15" rx="2.45" ry="2.44"/><ellipse class="cls-1" cx="147.55" cy="50" rx="2.45" ry="2.44"/><ellipse class="cls-1" cx="147.55" cy="65.85" rx="2.45" ry="2.44"/><ellipse class="cls-1" cx="147.55" cy="81.71" rx="2.45" ry="2.44"/><ellipse class="cls-1" cx="147.55" cy="97.56" rx="2.45" ry="2.44"/><ellipse class="cls-1" cx="164.21" cy="2.44" rx="2.45" ry="2.44"/><ellipse class="cls-1" cx="164.21" cy="18.29" rx="2.45" ry="2.44"/><ellipse class="cls-1" cx="164.21" cy="34.15" rx="2.45" ry="2.44"/><ellipse class="cls-1" cx="164.21" cy="50" rx="2.45" ry="2.44"/><ellipse class="cls-1" cx="164.21" cy="65.85" rx="2.45" ry="2.44"/><ellipse class="cls-1" cx="164.21" cy="81.71" rx="2.45" ry="2.44"/><ellipse class="cls-1" cx="164.21" cy="97.56" rx="2.45" ry="2.44"/><ellipse class="cls-1" cx="180.88" cy="2.44" rx="2.45" ry="2.44"/><ellipse class="cls-1" cx="180.88" cy="18.29" rx="2.45" ry="2.44"/><ellipse class="cls-1" cx="180.88" cy="34.15" rx="2.45" ry="2.44"/><ellipse class="cls-1" cx="180.88" cy="50" rx="2.45" ry="2.44"/><ellipse class="cls-1" cx="180.88" cy="65.85" rx="2.45" ry="2.44"/><ellipse class="cls-1" cx="180.88" cy="81.71" rx="2.45" ry="2.44"/><ellipse class="cls-1" cx="180.88" cy="97.56" rx="2.45" ry="2.44"/><ellipse class="cls-1" cx="197.55" cy="2.44" rx="2.45" ry="2.44"/><ellipse class="cls-1" cx="197.55" cy="18.29" rx="2.45" ry="2.44"/><ellipse class="cls-1" cx="197.55" cy="34.15" rx="2.45" ry="2.44"/><ellipse class="cls-1" cx="197.55" cy="50" rx="2.45" ry="2.44"/><ellipse class="cls-1" cx="197.55" cy="65.85" rx="2.45" ry="2.44"/><ellipse class="cls-1" cx="197.55" cy="81.71" rx="2.45" ry="2.44"/><ellipse class="cls-1" cx="197.55" cy="97.56" rx="2.45" ry="2.44"/></g></symbol><symbol id="abstract" viewBox="0 0 100 100"><path fill-rule="evenodd" d="M54.0433174,748.601905 C54.3516281,748.535155 54.6717086,748.5 55,748.5 C57.4852814,748.5 59.5,750.514719 59.5,753 C59.5,755.485281 57.4852814,757.5 55,757.5 C53.7805863,757.5 52.6744565,757.014974 51.8640078,756.227318 C50.7838813,757.027064 49.4471707,757.5 48,757.5 C44.4101491,757.5 41.5,754.589851 41.5,751 C41.5,747.410149 44.4101491,744.5 48,744.5 C50.7428864,744.5 53.088964,746.19894 54.0433174,748.601905 Z M53.0940585,748.922376 C52.2744049,746.914758 50.3024196,745.5 48,745.5 C44.9624339,745.5 42.5,747.962434 42.5,751 C42.5,754.037566 44.9624339,756.5 48,756.5 C49.2057738,756.5 50.3209227,756.111988 51.2273978,755.454014 C50.7673465,754.748212 50.5,753.905327 50.5,753 C50.5,751.195995 51.5615456,749.639928 53.0940585,748.922376 Z M52.6230971,755.569134 C53.2472752,756.146887 54.0824006,756.5 55,756.5 C56.9329966,756.5 58.5,754.932997 58.5,753 C58.5,751.067003 56.9329966,749.5 55,749.5 C54.7745195,749.5 54.5540191,749.521322 54.3404049,749.562059 C54.4448627,750.024617 54.5,750.50587 54.5,751 C54.5,752.781201 53.7835459,754.395065 52.6230971,755.569134 Z M53.3884098,749.892293 C52.2664021,750.475328 51.5,751.648163 51.5,753 C51.5,753.652467 51.6785355,754.263235 51.9894187,754.786115 C52.9255971,753.799987 53.5,752.467073 53.5,751 C53.5,750.620564 53.4615771,750.250102 53.3884098,749.892293 Z" transform="translate(-41 -744)"/></symbol><symbol id="arrow--down" viewBox="0 0 100 100">
<polygon points="52.6,89 74.3,67.2 78,71 50,99 22,71 25.7,67.2 47.4,89 47.4,1 52.6,1 "/>
</symbol><symbol id="arrow--left" viewBox="0 0 100 100">
<polygon points="11,52.6 32.8,74.3 29,78 1,50 29,22 32.8,25.7 11,47.4 99,47.4 99,52.6 "/>
</symbol><symbol id="arrow-short--left" viewBox="0 0 100 100">
<polygon points="11.1,47.4 99,47.4 99,52.6 11.1,52.6 43.5,85 39.8,88.8 1,50 39.8,11.2 43.5,15 "/>
</symbol><symbol id="arrow-short" viewBox="0 0 100 100">
<polygon points="88.9,52.6 1,52.6 1,47.4 88.9,47.4 56.5,15 60.2,11.2 99,50 60.2,88.8 56.5,85 "/>
</symbol><symbol id="arrow" viewBox="0 0 100 100">
<polygon points="89,47.4 67.2,25.7 71,22 99,50 71,78 67.2,74.3 89,52.6 1,52.6 1,47.4 "/>
</symbol><symbol id="ball" viewBox="0 0 100 100">
<path d="M50,1c27.1,0,49,21.9,49,49S77.1,99,50,99S1,77.1,1,50S22.9,1,50,1z M93.5,52.7H66.4c0.7,11.1,5.6,21.4,13.5,28.9
	C87.9,74.1,92.8,63.8,93.5,52.7z M66.4,47.3h27.1c-0.7-11.1-5.6-21.4-13.5-28.9C72,25.9,67.1,36.2,66.4,47.3z M6.5,52.7
	c0.7,11.1,5.6,21.4,13.5,28.9c8-7.5,12.8-17.8,13.5-28.9H6.5z M6.5,47.3h27.1C32.9,36.2,28,25.9,20.1,18.4
	C12.1,25.9,7.2,36.2,6.5,47.3z M61,52.7H39c-0.7,12.4-6,23.9-14.8,32.4c7.2,5.3,16.1,8.4,25.7,8.4s18.5-3.1,25.7-8.4
	C67,76.6,61.6,65.1,61,52.7z M39,47.3H61c0.7-12.4,6-23.9,14.8-32.4C68.5,9.6,59.6,6.4,50,6.4s-18.5,3.1-25.7,8.4
	C33,23.4,38.4,34.9,39,47.3z"/>
</symbol><symbol id="big-next" viewBox="0 0 100 100">
<style type="text/css">
	.st0{fill:#FFFFFF;}
</style>
<path class="st0" d="M43.9,1l32.8,49L43.9,99H23.3V1H43.9z M28.8,6.4v87.1h12.2L70.1,50L40.9,6.4H28.8z"/>
</symbol><symbol id="bookmark-detail" viewBox="0 0 100 100">
<path d="M15.7,10.8H1V5.9h98v4.9H84.3v83.3H73.8L50,79.8L26.2,94.1H15.7V10.8z M79.4,89.2V10.8H20.6v78.4h4.2L50,74.1l25.2,15.1
	H79.4z"/>
</symbol><symbol id="bookmark" viewBox="0 0 100 100"><path fill-rule="evenodd" d="M179,2799 L161,2799 L161,2781 L179,2781 L179,2799 Z M167,2782 L162,2782 L162,2798 L178,2798 L178,2782 L173,2782 L173,2789.23852 L170,2788.03852 L167,2789.23852 L167,2782 Z M172,2782 L168,2782 L168,2787.76148 L170,2786.96148 L172,2787.76148 L172,2782 Z" transform="translate(-161 -2781)"/></symbol><symbol id="building" viewBox="0 0 100 100">
<polygon points="93.6,93.4 93.6,71.6 99,71.6 99,98.8 1,98.8 1,71.6 6.4,71.6 6.4,93.4 "/>
<polygon points="6.4,21.8 6.4,49.8 1,49.8 1,17.9 50,1.2 99,17.9 99,49.8 93.6,49.8 93.6,21.8 50,6.9 "/>
</symbol><symbol id="carat--down" viewBox="0 0 100 100">
<path d="M50,66.2l43.5-43.5l5.5,5.5l-49,49l-49-49l5.5-5.5L50,66.2z"/>
</symbol><symbol id="carat" viewBox="0 0 100 100">
<path d="M66.2,50L22.7,6.5L28.3,1l49,49l-49,49l-5.5-5.5L66.2,50z"/>
</symbol><symbol id="check" viewBox="0 0 100 100">
<path d="M50,1C23,1,1,23,1,50s22,49,49,49c27,0,49-22,49-49S77,1,50,1z M79.4,35.9L44.6,70.7c-0.9,0.9-2.1,1.4-3.3,1.4
	c-1.2,0-2.4-0.5-3.3-1.4L20.6,53.3c-1.8-1.8-1.8-4.8,0-6.6c1.8-1.8,4.8-1.8,6.6,0l14.1,14.1l31.5-31.5c1.8-1.8,4.8-1.8,6.6,0
	C81.2,31.1,81.2,34.1,79.4,35.9z"/>
</symbol><symbol id="chevron" viewBox="0 0 100 100">
<path d="M91.2,50L54.8,13.6l3.9-3.9L99,50L58.7,90.3l-3.9-3.9L91.2,50z M1,86.4L37.4,50L1,13.6l3.9-3.9L45.2,50L4.9,90.3L1,86.4z"/>
</symbol><symbol id="circles" viewBox="0 0 100 100">
<path d="M79.9,1C90.5,1,99,9.5,99,20.1s-8.5,19.1-19.1,19.1s-19.1-8.5-19.1-19.1S69.4,1,79.9,1z M79.9,6.4
	c-7.5,0-13.6,6.1-13.6,13.6s6.1,13.6,13.6,13.6s13.6-6.1,13.6-13.6S87.5,6.4,79.9,6.4z M20.1,1c10.5,0,19.1,8.5,19.1,19.1
	s-8.5,19.1-19.1,19.1S1,30.6,1,20.1S9.5,1,20.1,1z M20.1,6.4c-7.5,0-13.6,6.1-13.6,13.6s6.1,13.6,13.6,13.6s13.6-6.1,13.6-13.6
	S27.6,6.4,20.1,6.4z M79.9,60.9c10.5,0,19.1,8.5,19.1,19.1S90.5,99,79.9,99s-19.1-8.5-19.1-19.1S69.4,60.9,79.9,60.9z M79.9,66.3
	c-7.5,0-13.6,6.1-13.6,13.6s6.1,13.6,13.6,13.6s13.6-6.1,13.6-13.6S87.5,66.3,79.9,66.3z M20.1,60.9c10.5,0,19.1,8.5,19.1,19.1
	S30.6,99,20.1,99S1,90.5,1,79.9S9.5,60.9,20.1,60.9z M20.1,66.3c-7.5,0-13.6,6.1-13.6,13.6s6.1,13.6,13.6,13.6s13.6-6.1,13.6-13.6
	S27.6,66.3,20.1,66.3z"/>
</symbol><symbol id="close-x" viewBox="0 0 100 100">
<polygon points="43.5,50 1,7.5 7.5,1 50,43.5 92.5,1 99,7.5 56.5,50 99,92.5 92.5,99 50,56.5 7.5,99 1,92.5 "/>
</symbol><symbol id="code" viewBox="0 0 100 100"><path d="M286.29289,1770 L280.706446,1764.41361 L281.413549,1763.7065 L287.70711,1770 L281.413549,1776.2935 L280.706446,1775.58639 L286.29289,1770 Z M292,1775 L300,1775 L300,1776 L292,1776 L292,1775 Z" transform="translate(-280 -1763)"/></symbol><symbol id="community" viewBox="0 0 100 100">
<style type="text/css">
	.st0{fill:#FFFFFF;}
</style>
<path class="st0" d="M42.3,68.3c10.4,4.3,17.7,15.2,17.7,28V99h-5v-2.7c0-13.8-10.2-24.9-22.6-24.9S9.8,82.5,9.8,96.3V99h-5v-2.7
	c0-12.7,7.3-23.6,17.7-28c-4.6-3.2-7.7-8.5-7.7-14.5c0-9.7,7.9-17.6,17.6-17.6S50,44.1,50,53.8C50,59.8,47,65.1,42.3,68.3z
	 M32.4,41.2c-6.9,0-12.6,5.6-12.6,12.6s5.6,12.6,12.6,12.6S45,60.7,45,53.8S39.3,41.2,32.4,41.2z M77.5,33.1
	c10.4,4.3,17.7,15.2,17.7,28v2.7h-5v-2.7c0-13.8-10.2-24.9-22.6-24.9c-9.7,0-17.6-7.9-17.6-17.6S57.9,1,67.6,1s17.6,7.9,17.6,17.6
	C85.2,24.6,82.1,30,77.5,33.1z M67.6,6C60.7,6,55,11.7,55,18.6s5.6,12.6,12.6,12.6s12.6-5.6,12.6-12.6S74.5,6,67.6,6z"/>
</symbol><symbol id="conveyancing" viewBox="0 0 100 100">
<path d="M44.2,45.3h-7.7c-0.6,0-1,0.4-1,1v13.2c0,0.6,0.4,1,1,1h7.7c0.6,0,1-0.4,1-1V46.3C45.2,45.7,44.7,45.3,44.2,45.3z
	 M43.2,58.4h-5.7V47.3h5.7V58.4z"/>
<path d="M30.2,45.3h-7.7c-0.6,0-1,0.4-1,1v13.2c0,0.6,0.4,1,1,1h7.7c0.6,0,1-0.4,1-1V46.3C31.2,45.7,30.8,45.3,30.2,45.3z
	 M29.2,58.4h-5.7V47.3h5.7V58.4z"/>
<path d="M2.2,36.3h4.1v61.4c0,0.7,0.5,1.2,1.2,1.2h84.9c0.7,0,1.2-0.5,1.2-1.2V36.3h4.1c0.5,0,0.9-0.3,1.1-0.7
	c0.2-0.4,0.2-0.9-0.1-1.3L73,1.5c-0.5-0.6-1.5-0.6-1.9,0l-9.2,11.8H48.8V6.7c0-0.7-0.5-1.2-1.2-1.2h-9.4c-0.7,0-1.2,0.5-1.2,1.2v6.6
	h-7.5V6.7c0-0.7-0.5-1.2-1.2-1.2h-9.4c-0.7,0-1.2,0.5-1.2,1.2v6.6H12c-0.5,0-0.9,0.3-1.1,0.7L1.1,34.6C1,34.9,1,35.4,1.2,35.7
	C1.4,36.1,1.8,36.3,2.2,36.3z M8.8,36.3h41.6v60.2H8.8V36.3z M78.1,96.5H66V75.4h12.1V96.5z M91.2,96.5H80.6V74.2
	c0-0.7-0.5-1.2-1.2-1.2H64.7c-0.7,0-1.2,0.5-1.2,1.2v22.3H52.9V36.3h38.4V96.5z M72,4.2l23.2,29.6H48.8L72,4.2z M39.3,7.9h7v13.2h-7
	V7.9z M20,7.9h7v13.2h-7V7.9z M12.8,15.7h4.7v6.6c0,0.7,0.5,1.2,1.2,1.2h9.4c0.7,0,1.2-0.5,1.2-1.2v-6.6h7.5v6.6
	c0,0.7,0.5,1.2,1.2,1.2h9.4c0.7,0,1.2-0.5,1.2-1.2v-6.6h11.1L45.7,33.9H4.2L12.8,15.7z"/>
<path d="M62.2,32.7h11.6c0.6,0,1-0.4,1-1v-1.8c0-3.7-3-6.8-6.8-6.8s-6.8,3-6.8,6.8v1.8C61.2,32.2,61.6,32.7,62.2,32.7z M63.2,29.9
	c0-2.6,2.2-4.8,4.8-4.8c2.6,0,4.8,2.2,4.8,4.8v0.8h-9.6V29.9z"/>
<path d="M68,62.6c5,0,9.2-4.1,9.2-9.2S73,44.3,68,44.3s-9.2,4.1-9.2,9.2S63,62.6,68,62.6z M68,46.3c3.9,0,7.2,3.2,7.2,7.2
	s-3.2,7.2-7.2,7.2c-3.9,0-7.2-3.2-7.2-7.2S64.1,46.3,68,46.3z"/>
</symbol><symbol id="crop" viewBox="0 0 100 100">
<path d="M20.6,25.5H1v-4.9h19.6V1h4.9v19.6h53.9v53.9H99v4.9H79.4V99h-4.9V79.4H20.6V25.5z M25.5,25.5v49h49v-49H25.5z"/>
</symbol><symbol id="cutout" viewBox="0 0 100 100"><path fill-rule="evenodd" d="M350,2259 C345.029437,2259 341,2254.97056 341,2250 C341,2245.02944 345.029437,2241 350,2241 C354.970563,2241 359,2245.02944 359,2250 C359,2254.97056 354.970563,2259 350,2259 Z M350,2242 C345.581722,2242 342,2245.58172 342,2250 C342,2254.41828 345.581722,2258 350,2258 C351.020851,2258 352.013471,2257.80882 352.938487,2257.44328 C350.509053,2255.79024 349,2253.02834 349,2250 C349,2246.97166 350.509053,2244.20976 352.938487,2242.55672 C352.013471,2242.19118 351.020851,2242 350,2242 Z M350,2250 C350,2252.8938 351.549566,2255.51327 354,2256.92989 C356.450434,2255.51327 358,2252.8938 358,2250 C358,2247.1062 356.450434,2244.48673 354,2243.07011 C351.549566,2244.48673 350,2247.1062 350,2250 Z" transform="translate(-341 -2241)"/></symbol><symbol id="euro-1" viewBox="0 0 100 100">
<path d="M50,1C22.9,1,1,22.9,1,50s21.9,49,49,49s49-21.9,49-49S77.1,1,50,1z M50,6.4c24.1,0,43.6,19.5,43.6,43.6S74.1,93.6,50,93.6
	S6.4,74.1,6.4,50S25.9,6.4,50,6.4z M50,8.2C26.9,8.2,8.2,26.9,8.2,50S26.9,91.8,50,91.8S91.8,73.1,91.8,50S73.1,8.2,50,8.2z M50,9
	c22.6,0,41,18.3,41,41S72.6,91,50,91S9,72.6,9,50S27.4,9,50,9z M55.8,19.3c-5.3,0-10.2,1.2-14.6,3.5C34,26.7,29.6,33,27.9,41.8h-4.8
	L22,47.2h5.4c0,0.6,0,1.1,0,1.7c0,1.3,0.1,2.5,0.1,3.7h-4.3L22,58h6.3c0.6,2.9,1.4,5.4,2.2,7.5c4.4,10.1,12.7,15.2,25.1,15.2
	c4.1,0,7.9-0.8,11.3-2.3v-8.3c-2.9,2.6-6.9,3.9-12,3.9c-3.7,0-7.1-0.9-10.2-2.8c-4.4-2.6-7.2-7-8.3-13.1h24.4l1.2-5.4H35.6
	c0-0.4-0.1-1.6-0.1-3.7c0-0.5,0-1.1,0.1-1.6h27.5l1.1-5.4h-28c0.3-2.2,1.2-4.5,2.7-7c1.5-2.4,3.2-4.2,5-5.5c3.1-2.2,7-3.3,11.6-3.3
	c4.2,0,8,1.4,11.4,4.1l1.6-7.5C65.1,20.4,60.8,19.3,55.8,19.3L55.8,19.3z"/>
</symbol><symbol id="euro-2-a" viewBox="0 0 100 100">
<path d="M53.8,27.6c5.9,0,11.3,2.3,15.3,6.1l1.2-2.9c-4.4-3.8-10.2-6.1-16.5-6.1c-11.3,0-20.9,7.5-24.1,17.8h-8.5l-1.5,3v0.1h9.2
	c-0.3,1.5-0.4,3-0.4,4.4c0,1.5,0.1,3,0.4,4.4h-7.8l-1.5,3h10c3.2,10.2,12.8,17.8,24.1,17.8c6.3,0,11.9-2.3,16.3-5.9V65
	c-4,4.4-9.9,7.1-16.3,7.1c-9.7,0-17.9-6.2-20.9-14.9h26.8l1.2-3H32c-0.3-1.5-0.4-3-0.4-4.4c0-1.5,0.1-3,0.4-4.4h32.5l1.2-3H32.9
	C35.9,33.8,44.1,27.6,53.8,27.6z M50,1L50,1C22.9,1,1,22.9,1,50v0c0,27.1,21.9,49,49,49h0c27.1,0,49-21.9,49-49v0
	C99,22.9,77.1,1,50,1z M97,50c0,26-21,47-47,47h0C24,97,3,76,3,50v0C3,24,24,3,50,3h0C76,3,97,24,97,50L97,50z"/>
</symbol><symbol id="eye" viewBox="0 0 100 100">
<path d="M1.5,48.9C9.5,30.1,28.7,17.5,50,17.5s40.5,12.6,48.5,31.4L99,50l-0.5,1.1C90.5,69.9,71.3,82.5,50,82.5S9.5,69.9,1.5,51.1
	L1,50L1.5,48.9z M50,77.1c18.7,0,35.6-10.9,43.1-27.1C85.6,33.8,68.7,22.9,50,22.9S14.4,33.8,6.9,50C14.4,66.2,31.3,77.1,50,77.1z
	 M50,63.5c-7.5,0-13.5-6.1-13.5-13.5S42.5,36.5,50,36.5S63.5,42.5,63.5,50S57.5,63.5,50,63.5z M50,58.1c4.5,0,8.1-3.6,8.1-8.1
	s-3.6-8.1-8.1-8.1s-8.1,3.6-8.1,8.1S45.5,58.1,50,58.1z"/>
</symbol><symbol id="facebook" viewBox="0 0 100 100">
<g id="XMLID_834_">
	<path id="XMLID_835_" d="M26.8,53.2h10.7v44.2c0,0.9,0.7,1.6,1.6,1.6h18.2c0.9,0,1.6-0.7,1.6-1.6v-44h12.3c0.8,0,1.5-0.6,1.6-1.4
		l1.9-16.3c0.1-0.4-0.1-0.9-0.4-1.2c-0.3-0.3-0.7-0.5-1.2-0.5H58.9V23.8c0-3.1,1.7-4.6,4.9-4.6c0.5,0,9.3,0,9.3,0
		c0.9,0,1.6-0.7,1.6-1.6V2.6C74.8,1.7,74,1,73.2,1H60.4c-0.1,0-0.3,0-0.6,0c-2.2,0-10,0.4-16.1,6.1c-6.8,6.2-5.8,13.7-5.6,15V34
		H26.8c-0.9,0-1.6,0.7-1.6,1.6v16.1C25.2,52.5,26,53.2,26.8,53.2z"/>
</g>
</symbol><symbol id="full-screen-thin" viewBox="0 0 100 100">
<g>
	<rect x="1" y="1" width="4.4" height="24"/>
</g>
<g>
	<rect x="94.6" y="75" width="4.4" height="24"/>
</g>
<g>
	<rect x="1" y="94.6" width="24" height="4.4"/>
</g>
<g>
	<rect x="75" y="1" width="24" height="4.4"/>
</g>
<g>
	<rect x="1" y="1" width="24" height="4.4"/>
</g>
<g>
	<rect x="75" y="94.6" width="24" height="4.4"/>
</g>
<g>
	<rect x="94.6" y="1" width="4.4" height="24"/>
</g>
<g>
	<rect x="1" y="75" width="4.4" height="24"/>
</g>
</symbol><symbol id="funnel" viewBox="0 0 100 100">
<path d="M99,18.1V23H1v-4.9H99z M79.4,47.5v4.9H20.6v-4.9H79.4z M59.8,76.9v4.9H40.2v-4.9H59.8z"/>
</symbol><symbol id="grid-thin" viewBox="0 0 100 100">
<path d="M48.1,48.3V2.2H2v46.1H48.1z M4.8,5h40.5v40.5H4.8V5z M98,2.2H51.9v46.1H98V2.2z M95.2,45.5H54.7V5h40.5V45.5z M48.1,51.7H2
	v46.1h46.1V51.7z M45.3,95H4.8V54.5h40.5V95z M98,51.7H51.9v46.1H98V51.7z M95.2,95H54.7V54.5h40.5V95z"/>
</symbol><symbol id="home" viewBox="0 0 100 100">
<path d="M97.7,98H2.3V34.5L50,2l47.7,32.5V98z M92.4,37.3L50,8.4L7.6,37.3v55.4h84.8V37.3z"/>
</symbol><symbol id="instagram" viewBox="0 0 100 100"><g id="a" class="a"><g transform="translate(1 1)"><path d="M81.667,0H16.333A16.333,16.333,0,0,0,0,16.333V81.667A16.333,16.333,0,0,0,16.333,98H81.667A16.333,16.333,0,0,0,98,81.667V16.333A16.333,16.333,0,0,0,81.667,0Zm8.167,81.667a8.167,8.167,0,0,1-8.167,8.167H16.333a8.167,8.167,0,0,1-8.167-8.167V16.333a8.167,8.167,0,0,1,8.167-8.167H81.667a8.167,8.167,0,0,1,8.167,8.167Z"/><path d="M30.5,6A24.5,24.5,0,1,0,55,30.5,24.5,24.5,0,0,0,30.5,6Zm0,40.833A16.333,16.333,0,1,1,46.833,30.5,16.333,16.333,0,0,1,30.5,46.833Z" transform="translate(18.5 18.5)"/><circle cx="6.125" cy="6.125" r="6.125" transform="translate(69.417 16.333)"/></g></g></symbol><symbol id="legal-will" viewBox="0 0 100 100">
<g>
	<path d="M92.7,83H69.8c-0.2,0-0.5-0.1-0.6-0.3c-0.2-0.2-0.3-0.4-0.3-0.6l0-4.1c-2.1,1.1-4.5,1.6-6.9,1.6h0c-2.4,0-4.7-0.5-6.9-1.6
		v4.1c0,0.2-0.1,0.5-0.3,0.6c-0.2,0.2-0.4,0.3-0.6,0.3H31.5c-0.2,0-0.5-0.1-0.6-0.3c-0.2-0.2-0.3-0.4-0.3-0.6V62.8
		c0-0.5,0.4-0.9,0.9-0.9c0.5,0,0.9,0.4,0.9,0.9v18.4h21v-4.7c0-0.3,0.2-0.6,0.5-0.8c0.3-0.2,0.6-0.1,0.9,0c2.2,1.4,4.7,2.1,7.3,2.1
		c2.6,0,5.1-0.7,7.3-2.1c0.3-0.2,0.6-0.2,0.9,0c0.3,0.2,0.5,0.5,0.5,0.8v4.7h21l0-7.4c0-0.5,0.4-0.9,0.9-0.9c0.5,0,0.9,0.4,0.9,0.9
		v8.3c0,0.2-0.1,0.5-0.3,0.6C93.1,82.9,92.9,83,92.7,83L92.7,83z M92.7,70.1c-0.5,0-0.9-0.4-0.9-0.9c0-0.5,0.4-0.9,0.9-0.9
		c0.5,0,0.9,0.4,0.9,0.9C93.5,69.7,93.1,70.1,92.7,70.1z M92.7,65.7c-0.5,0-0.9-0.4-0.9-0.9V14.4L80.1,2.8H32.4l0,51
		c0,0.5-0.4,0.9-0.9,0.9c-0.5,0-0.9-0.4-0.9-0.9V1.9c0-0.2,0.1-0.5,0.3-0.6C31,1.1,31.3,1,31.5,1h48.9c0.2,0,0.5,0.1,0.6,0.3
		l12.2,12.2c0.2,0.2,0.3,0.4,0.3,0.6v50.7v0C93.5,65.3,93.1,65.7,92.7,65.7L92.7,65.7z M31.5,59.2c-0.5,0-0.9-0.4-0.9-0.9
		c0-0.5,0.4-0.9,0.9-0.9c0.5,0,0.9,0.4,0.9,0.9C32.4,58.8,32,59.2,31.5,59.2z"/>
	<path d="M23.4,72.9H13.4c-0.2,0-0.5-0.1-0.6-0.3c-0.2-0.2-0.3-0.4-0.3-0.6V17.9c0-0.2,0.1-0.5,0.3-0.6c0.2-0.2,0.4-0.3,0.6-0.3
		h10.1c0.2,0,0.5,0.1,0.6,0.3c0.2,0.2,0.3,0.4,0.3,0.6v18.5c0,0.5-0.4,0.9-0.9,0.9c-0.5,0-0.9-0.4-0.9-0.9V18.8h-8.3v52.3h8.3V45.4
		c0-0.5,0.4-0.9,0.9-0.9c0.5,0,0.9,0.4,0.9,0.9V72c0,0.2-0.1,0.5-0.3,0.6C23.9,72.8,23.7,72.9,23.4,72.9z M23.4,41.8
		c-0.5,0-0.9-0.4-0.9-0.9c0-0.5,0.4-0.9,0.9-0.9c0.5,0,0.9,0.4,0.9,0.9C24.3,41.4,23.9,41.8,23.4,41.8z"/>
	<path d="M92.7,15H80.4c-0.2,0-0.5-0.1-0.6-0.3c-0.2-0.2-0.3-0.4-0.3-0.6V1.9c0-0.4,0.2-0.7,0.6-0.8c0.3-0.1,0.7-0.1,1,0.2
		l12.2,12.2c0.3,0.3,0.3,0.6,0.2,1C93.3,14.8,93,15,92.7,15L92.7,15z M81.3,13.2h9.2l-9.2-9.1V13.2z"/>
	<path d="M62.1,15H37.9c-0.5,0-0.9-0.4-0.9-0.9c0-0.5,0.4-0.9,0.9-0.9h24.2c0.5,0,0.9,0.4,0.9,0.9C63,14.6,62.6,15,62.1,15z"/>
	<path d="M86.2,22.2H37.9c-0.5,0-0.9-0.4-0.9-0.9c0-0.5,0.4-0.9,0.9-0.9h48.3c0.5,0,0.9,0.4,0.9,0.9C87.1,21.8,86.7,22.2,86.2,22.2
		L86.2,22.2z"/>
	<path d="M86.2,29.5H37.9c-0.5,0-0.9-0.4-0.9-0.9c0-0.5,0.4-0.9,0.9-0.9h48.3c0.5,0,0.9,0.4,0.9,0.9C87.1,29.1,86.7,29.5,86.2,29.5
		L86.2,29.5z"/>
	<path d="M86.2,36.8H37.9c-0.5,0-0.9-0.4-0.9-0.9c0-0.5,0.4-0.9,0.9-0.9h48.3c0.5,0,0.9,0.4,0.9,0.9C87.1,36.4,86.7,36.8,86.2,36.8
		L86.2,36.8z"/>
	<path d="M18.6,85.1L18.6,85.1c-0.4,0-0.7-0.2-0.8-0.5l-5.2-12.2c-0.1-0.3-0.1-0.6,0.1-0.8c0.2-0.3,0.4-0.4,0.7-0.4h10.1
		c0.3,0,0.6,0.1,0.7,0.4c0.2,0.2,0.2,0.6,0.1,0.8l-4.8,12.2C19.3,84.9,19,85.1,18.6,85.1L18.6,85.1z M14.7,72.9l3.8,8.9l3.5-8.9
		H14.7z"/>
	<path d="M7.3,45.9c-0.5,0-0.9-0.4-0.9-0.9v-19c0-0.2,0.1-0.5,0.3-0.6c0.2-0.2,0.4-0.3,0.6-0.3h6c0.5,0,0.9,0.4,0.9,0.9
		c0,0.5-0.4,0.9-0.9,0.9H8.2V45C8.2,45.5,7.8,45.9,7.3,45.9L7.3,45.9z"/>
	<path d="M23.4,18.8H13.4c-0.2,0-0.5-0.1-0.6-0.3c-0.2-0.2-0.3-0.4-0.3-0.6v-11c0-3.3,2.7-5.9,5.9-5.9c3.3,0,5.9,2.7,5.9,5.9v11
		c0,0.2-0.1,0.5-0.3,0.6C23.9,18.7,23.7,18.8,23.4,18.8L23.4,18.8z M14.3,17h8.3V6.9c0-1.1-0.4-2.1-1.2-2.9
		c-0.8-0.8-1.8-1.2-2.9-1.2c-1.1,0-2.1,0.4-2.9,1.2c-0.8,0.8-1.2,1.8-1.2,2.9L14.3,17z"/>
	<path d="M23.4,18.8H13.4c-0.2,0-0.5-0.1-0.6-0.3c-0.2-0.2-0.3-0.4-0.3-0.6v-5.8c0-0.2,0.1-0.5,0.3-0.6c0.2-0.2,0.4-0.3,0.6-0.3
		h10.1c0.2,0,0.5,0.1,0.6,0.3c0.2,0.2,0.3,0.4,0.3,0.6v5.8c0,0.2-0.1,0.5-0.3,0.6C23.9,18.7,23.7,18.8,23.4,18.8z M14.3,17h8.3v-4
		h-8.3V17z"/>
	<path d="M62.1,79.6c-2.1,0-4.1-0.4-6-1.2c-1.8-0.8-3.5-1.9-4.9-3.3c-1.4-1.4-2.5-3.1-3.3-4.9c-0.8-1.9-1.2-3.9-1.2-6
		c0-2.1,0.4-4.1,1.2-6c0.8-1.8,1.9-3.5,3.3-4.9c1.4-1.4,3.1-2.5,4.9-3.3c1.9-0.8,3.9-1.2,6-1.2c2.1,0,4.1,0.4,6,1.2
		c1.8,0.8,3.5,1.9,4.9,3.3c1.4,1.4,2.5,3.1,3.3,4.9c0.8,1.9,1.2,3.9,1.2,6c0,2.1-0.4,4.1-1.2,6c-0.8,1.8-1.9,3.5-3.3,4.9
		c-1.4,1.4-3.1,2.5-4.9,3.3C66.2,79.2,64.2,79.6,62.1,79.6L62.1,79.6z M62.1,50.6c-3.7,0-7.1,1.4-9.7,4c-2.6,2.6-4,6-4,9.6
		c0,3.6,1.4,7.1,4,9.6c2.6,2.6,6,4,9.7,4c3.7,0,7.1-1.4,9.7-4c2.6-2.6,4-6,4-9.6c0-3.6-1.4-7.1-4-9.6C69.2,52,65.7,50.6,62.1,50.6
		L62.1,50.6z"/>
	<path d="M54.3,99c-0.1,0-0.2,0-0.3,0c-0.4-0.1-0.6-0.5-0.6-0.9V76.4c0-0.3,0.2-0.6,0.5-0.8c0.3-0.2,0.6-0.1,0.9,0
		c2.2,1.4,4.7,2.1,7.3,2.1c2.6,0,5.1-0.7,7.3-2.1c0.3-0.2,0.6-0.2,0.9,0c0.3,0.2,0.5,0.5,0.5,0.8v21.7c0,0.4-0.3,0.7-0.6,0.9
		c-0.4,0.1-0.8,0-1-0.3l-6.8-9.9L55,98.6C54.9,98.9,54.6,99,54.3,99L54.3,99z M55.2,78v17.4l6.4-8.7c0.2-0.2,0.4-0.4,0.7-0.4h0
		c0.3,0,0.6,0.2,0.7,0.4l5.9,8.5V78c-2.1,1.1-4.5,1.6-6.9,1.6h0C59.7,79.6,57.4,79,55.2,78L55.2,78z"/>
	<path d="M62.1,71.9c-2.1,0-4-0.8-5.5-2.3c-1.5-1.5-2.3-3.4-2.3-5.5c0-2.1,0.8-4,2.3-5.5c1.5-1.5,3.4-2.3,5.5-2.3
		c2.1,0,4,0.8,5.5,2.3c1.5,1.5,2.3,3.4,2.3,5.5s-0.8,4-2.3,5.5C66.1,71.1,64.1,71.9,62.1,71.9z M62.1,58.2c-3.3,0-6,2.7-6,6
		c0,3.3,2.7,6,6,6c3.3,0,6-2.7,6-6C68.1,60.9,65.4,58.2,62.1,58.2z"/>
</g>
</symbol><symbol id="linkedin-plain" viewBox="0 0 100 100">
<g>
	<path d="M1.7,33.2L21.5,33v64.8L1.7,98L1.7,33.2L1.7,33.2z"/>
	<path d="M38.1,33.2L57,33v8.2l0,2.3c5.6-5.5,11.4-9.6,20.6-9.6c10.9,0,21.4,4.6,21.4,19.4v44.5l-19.2,0.3v-34
		c0-7.5-1.9-12.3-10.8-12.3c-7.9,0-11.2,1.4-11.2,11.8v34.2L38.1,98L38.1,33.2L38.1,33.2z"/>
	<path d="M22.7,12.8c0,6-4.8,10.8-10.8,10.8S1,18.8,1,12.8c0-6,4.8-10.8,10.8-10.8C17.8,1.9,22.7,6.8,22.7,12.8L22.7,12.8z"/>
</g>
</symbol><symbol id="list" viewBox="0 0 100 100">
<path d="M99,1v98H1V1H99z M6.4,6.4v87.1h87.1V6.4H6.4z M77.2,63.6v5.4H22.8v-5.4H77.2z M77.2,30.9v5.4H22.8v-5.4H77.2z"/>
</symbol><symbol id="litigation" viewBox="0 0 100 100">
<path d="M2.8,25.7c0.1,0.1,1.8,0.7,4.6,0.7c2.9,0,7.1-0.7,12.4-3.2L9.1,63.1H5.5c-0.7,0-1.2,0.5-1.2,1.2v3.6c0,3.5,2.8,6.4,6.4,6.4
	H34c3.5,0,6.4-2.8,6.4-6.4v-3.6c0-0.7-0.5-1.2-1.2-1.2h-5L23,21.5c0.2-0.1,0.3-0.2,0.5-0.3c10-6,19.1-6.9,23.6-6.9
	c-0.4,0.7-0.7,1.5-0.8,2.5l-3.9,64.8H39c-3.1,0-5.7,2.5-5.7,5.7v1h-1.9c-0.7,0-1.2,0.5-1.2,1.2v7.1c0,0.7,0.5,1.2,1.2,1.2h37.2
	c0.7,0,1.2-0.5,1.2-1.2v-7.1c0-0.7-0.5-1.2-1.2-1.2h-1.8v-1c0-3.1-2.5-5.7-5.7-5.7h-3.4l-3.9-64.8c-0.1-1.1-0.4-2-0.8-2.5
	c4.3,0,13,0.8,22.6,6.4L64.5,63.1h-3.6c-0.7,0-1.2,0.5-1.2,1.2v3.6c0,3.5,2.8,6.4,6.4,6.4h23.3c3.5,0,6.4-2.8,6.4-6.4v-3.6
	c0-0.7-0.5-1.2-1.2-1.2h-5L78.9,22.5c6,3.1,10.7,3.9,13.8,3.9c2.8,0,4.4-0.6,4.6-0.7c0.6-0.3,0.9-1,0.7-1.6c-0.3-0.6-1-0.9-1.6-0.7
	c-0.1,0-6.9,2.6-18.6-4.4c-9.7-5.8-18.5-7-23.6-7.1c1-1.1,1.7-2.4,1.7-4C55.9,4.7,53.2,2,50,2s-5.9,2.6-5.9,5.9c0,1.6,0.6,3,1.7,4
	C40.7,12,31.9,13.3,22.2,19c-11.6,7-18.4,4.5-18.5,4.4c-0.6-0.3-1.3,0-1.6,0.7C1.8,24.7,2.1,25.4,2.8,25.7z M37.9,68
	c0,2.2-1.8,3.9-3.9,3.9H10.7c-2.2,0-3.9-1.8-3.9-3.9v-2.4H38L37.9,68L37.9,68z M11.6,63.1l10-37.5l10,37.5H11.6z M67.4,95.5H32.6
	v-4.7h34.7L67.4,95.5L67.4,95.5z M64.4,87.4v1H35.6v-1c0-1.9,1.5-3.3,3.3-3.3H61C62.9,84.1,64.4,85.5,64.4,87.4z M55.3,81.7H44.7
	l3.9-64.6c0.1-1.4,0.8-2.1,1.4-2.1c0.6,0,1.3,0.7,1.4,2.1L55.3,81.7z M93.3,68c0,2.2-1.8,3.9-3.9,3.9H66.1c-2.2,0-3.9-1.8-3.9-3.9
	v-2.4h31.2L93.3,68L93.3,68z M67,63.1l10-38.2l10,38.2H67z M50,4.5c1.9,0,3.4,1.6,3.4,3.4s-1.6,3.4-3.4,3.4c-1.9,0-3.4-1.6-3.4-3.4
	S48.1,4.5,50,4.5z"/>
</symbol><symbol id="long-arrow" viewBox="0 0 100 100"><path d="M87 0l26 26h-113v8h113l-26 26h11l30-30-30-30h-11z" transform="translate(0 33)"/></symbol><symbol id="menu-thin" viewBox="0 0 100 100">
<path d="M99,22v6H1v-6H99z M99,47v6H1v-6H99z M1,74.5v6h98v-6H1z"/>
</symbol><symbol id="minus" viewBox="0 0 100 100"><path d="M46.819,53.197l-0,-0.016l-41.599,0l-0,-6.362l41.599,-0l-0,-0.012l6.362,-0l0,0.012l41.599,-0l0,6.362l-41.599,0l0,0.016l-6.362,0Z"/></symbol><symbol id="move-icon" viewBox="0 0 100 100">
<path d="M52.5,83.7l15.4-15.4l3.5,3.5L50,93.1L28.7,71.8l3.5-3.5l15.4,15.4V55.9h4.9V83.7z M1,41.2v-4.9h98v4.9H1z M1,11.8V6.9h98
	v4.9H1z"/>
</symbol><symbol id="move-right-icon" viewBox="0 0 100 100">
<path d="M83.7,47.5L68.3,32.1l3.5-3.5L93.1,50L71.8,71.3l-3.5-3.5l15.4-15.4H55.9v-4.9H83.7z M41.2,99h-4.9V1h4.9V99z M11.8,99H6.9
	V1h4.9V99z"/>
</symbol><symbol id="next" viewBox="0 0 100 100">
<path d="M65.9,50L23.3,7.4L28.7,2l48,48l-48,48l-5.4-5.4L65.9,50z"/>
</symbol><symbol id="pause" viewBox="0 0 100 100">
<path d="M99,1v98H1V1H99z M6.4,6.4v87.1h87.1V6.4H6.4z M39.4,71h-5.4V30h5.4V71z M66.1,71h-5.4V30h5.4V71z"/>
</symbol><symbol id="play" viewBox="0 0 100 100">
<path d="M50,99C22.9,99,1,77.1,1,50S22.9,1,50,1s49,21.9,49,49S77.1,99,50,99z M50,93.6c24.1,0,43.6-19.5,43.6-43.6S74.1,6.4,50,6.4
	S6.4,25.9,6.4,50S25.9,93.6,50,93.6z M36.4,75.8V24.2L75.1,50L36.4,75.8z M41.8,34.4v31.2L65.3,50L41.8,34.4z"/>
</symbol><symbol id="prev" viewBox="0 0 100 100">
<path d="M76.7,92.6L71.3,98l-48-48l48-48l5.4,5.4L34.1,50L76.7,92.6z"/>
</symbol><symbol id="probate--alt" viewBox="0 0 100 100">
<g transform="translate(0,-952.36218)">
	<path d="M21.1,958c-0.3,0.1-0.5,0.4-0.5,0.7v13.5c-0.1,0.2-0.1,0.4,0,0.6v33.5H1.7c-0.4,0-0.7,0.3-0.7,0.7v29.2c0,0,0,0,0,0.1v0.1
		c0,5.8,4.7,10.5,10.5,10.5c0.5,0,0.9,0,1.4-0.1c0.1,0.1,0.2,0.1,0.4,0.1h75.4c5.8,0,10.5-4.6,10.5-10.4v-77.7
		c0-0.4-0.3-0.7-0.7-0.7H21.2C21.2,958,21.1,958,21.1,958L21.1,958z M21.9,959.3h75.7v77c0,5-4.1,9.1-9.1,9.1H16.6
		c0.8-0.5,1.5-1,2.2-1.7c0,0,0,0,0,0c0.6-0.6,1.2-1.3,1.6-2c0,0,0,0,0-0.1c0.2-0.4,0.4-0.7,0.6-1.1c0,0,0,0,0-0.1
		c0.3-0.8,0.6-1.7,0.7-2.6c0-0.1,0-0.3,0-0.4c0-0.4,0.1-0.7,0.1-1.1v-6.3v-22.8c0,0,0,0,0-0.1c0-0.1,0-0.2,0-0.3c0,0,0,0,0-0.1
		v-33.9c0.1-0.2,0.1-0.5,0-0.7L21.9,959.3L21.9,959.3z M34.9,971.8c-0.4,0.1-0.6,0.4-0.5,0.8c0.1,0.3,0.3,0.5,0.7,0.5h37.4
		c0.4,0.1,0.7-0.2,0.8-0.6c0.1-0.4-0.2-0.7-0.6-0.8c-0.1,0-0.1,0-0.2,0H35C35,971.8,34.9,971.8,34.9,971.8z M34.8,985.6
		c-0.4,0.1-0.6,0.4-0.6,0.8s0.4,0.6,0.8,0.6c0,0,0,0,0,0h49.5c0.4,0.1,0.7-0.2,0.8-0.6c0.1-0.4-0.2-0.7-0.6-0.8c-0.1,0-0.1,0-0.2,0
		H35C35,985.6,34.9,985.6,34.8,985.6z M34.9,1001.7c-0.4,0.1-0.6,0.4-0.5,0.8c0.1,0.3,0.3,0.5,0.7,0.5h18.4c0.4,0.1,0.7-0.2,0.8-0.6
		c0.1-0.4-0.2-0.7-0.6-0.8c-0.1,0-0.1,0-0.2,0H35C35,1001.7,34.9,1001.7,34.9,1001.7z M66,1001.7c-0.4,0.1-0.6,0.4-0.5,0.8
		c0.1,0.3,0.3,0.5,0.7,0.5h18.4c0.4,0.1,0.7-0.2,0.8-0.6c0.1-0.4-0.2-0.7-0.6-0.8c-0.1,0-0.1,0-0.2,0H66.1
		C66,1001.7,66,1001.7,66,1001.7z M2.4,1007.7h18.2v22.3v6.3c0,0.1,0,0.2,0,0.2c0,0.2,0,0.4,0,0.6c0,0,0,0.1,0,0.1
		c0,0.2-0.1,0.5-0.1,0.7c0,0.1,0,0.1,0,0.2c0,0.2-0.1,0.4-0.1,0.6c0,0.1,0,0.2-0.1,0.3c-0.1,0.2-0.1,0.3-0.2,0.5
		c0,0.1-0.1,0.2-0.1,0.3c-0.1,0.1-0.1,0.3-0.2,0.4c-0.1,0.1-0.1,0.3-0.2,0.4c0,0.1-0.1,0.2-0.1,0.3c-0.1,0.2-0.2,0.3-0.3,0.5
		c-0.1,0.1-0.1,0.2-0.2,0.2c-0.1,0.1-0.2,0.3-0.3,0.4c0,0,0,0.1-0.1,0.1c-0.1,0.1-0.1,0.1-0.2,0.2c-0.3,0.3-0.6,0.6-0.9,0.9
		c0,0,0,0,0,0c-1.2,1-2.6,1.6-4.2,1.9c0,0-0.1,0-0.1,0c-0.5,0.1-0.9,0.1-1.4,0.1c-5,0-9.1-4-9.1-9c0,0,0-0.1,0-0.1L2.4,1007.7
		L2.4,1007.7z M34.9,1016.6c-0.4,0.1-0.6,0.4-0.5,0.8c0.1,0.3,0.3,0.5,0.7,0.5h49.5c0.4,0.1,0.7-0.2,0.8-0.6
		c0.1-0.4-0.2-0.7-0.6-0.8c-0.1,0-0.1,0-0.2,0H35C35,1016.6,34.9,1016.6,34.9,1016.6z M34.9,1031.6c-0.4,0.1-0.6,0.4-0.5,0.8
		c0.1,0.3,0.3,0.5,0.7,0.5h49.5c0.4,0.1,0.7-0.2,0.8-0.6c0.1-0.4-0.2-0.7-0.6-0.8c-0.1,0-0.1,0-0.2,0H35
		C35,1031.6,34.9,1031.6,34.9,1031.6z"/>
</g>
</symbol><symbol id="probate" viewBox="0 0 100 100">
<path d="M90.7,1l-0.9,0c0,0,0,0,0,0c0,0,0,0,0,0L18.7,1c-4.6,0.5-8.2,4.6-8.2,9.5v67.2H2.2c-0.7,0-1.2,0.5-1.2,1.2v10.6
	c0,5.3,4.3,9.6,9.6,9.6H75c0,0,0,0,0,0c5.2,0,9.5-4.3,9.5-9.6V23.5h13.3c0.7,0,1.2-0.5,1.2-1.2v-13C99,4.7,95.3,1,90.7,1z
	 M10.6,96.6c-3.9,0-7.1-3.2-7.1-7.2v-9.3h61.9v9.3c0,2.8,1.2,5.4,3.2,7.2H10.6z M82,89.4c0,3.9-3.2,7.1-7,7.1
	c-3.9,0-7.1-3.2-7.1-7.2V78.8c0-0.7-0.5-1.2-1.2-1.2H13V10.5c0-3.6,2.6-6.7,5.8-7h65.4C82.8,4.9,82,6.8,82,8.8V89.4z M96.6,21.1
	H84.4V8.8c0-3,2.4-5.4,5.4-5.4h0.9c3.2,0,5.8,2.6,5.8,5.9V21.1z"/>
<path d="M52.3,22.7H28c-0.6,0-1,0.4-1,1s0.4,1,1,1h24.3c0.6,0,1-0.4,1-1S52.9,22.7,52.3,22.7z"/>
<path d="M36,37.1h-8c-0.6,0-1,0.4-1,1s0.4,1,1,1h8c0.6,0,1-0.4,1-1S36.6,37.1,36,37.1z"/>
<path d="M52.3,37.1h-8c-0.6,0-1,0.4-1,1s0.4,1,1,1h8c0.6,0,1-0.4,1-1S52.9,37.1,52.3,37.1z"/>
<path d="M68.6,37.1h-8c-0.6,0-1,0.4-1,1s0.4,1,1,1h8c0.6,0,1-0.4,1-1S69.2,37.1,68.6,37.1z"/>
<path d="M36,45.6h-8c-0.6,0-1,0.4-1,1s0.4,1,1,1h8c0.6,0,1-0.4,1-1S36.6,45.6,36,45.6z"/>
<path d="M52.3,45.6h-8c-0.6,0-1,0.4-1,1s0.4,1,1,1h8c0.6,0,1-0.4,1-1S52.9,45.6,52.3,45.6z"/>
<path d="M68.6,45.6h-8c-0.6,0-1,0.4-1,1s0.4,1,1,1h8c0.6,0,1-0.4,1-1S69.2,45.6,68.6,45.6z"/>
<path d="M36,54.1h-8c-0.6,0-1,0.4-1,1s0.4,1,1,1h8c0.6,0,1-0.4,1-1S36.6,54.1,36,54.1z"/>
<path d="M52.3,54.1h-8c-0.6,0-1,0.4-1,1s0.4,1,1,1h8c0.6,0,1-0.4,1-1S52.9,54.1,52.3,54.1z"/>
<path d="M68.6,54.1h-8c-0.6,0-1,0.4-1,1s0.4,1,1,1h8c0.6,0,1-0.4,1-1S69.2,54.1,68.6,54.1z"/>
<path d="M36,62.6h-8c-0.6,0-1,0.4-1,1s0.4,1,1,1h8c0.6,0,1-0.4,1-1S36.6,62.6,36,62.6z"/>
<path d="M52.3,62.6h-8c-0.6,0-1,0.4-1,1s0.4,1,1,1h8c0.6,0,1-0.4,1-1S52.9,62.6,52.3,62.6z"/>
<path d="M68.6,62.6h-8c-0.6,0-1,0.4-1,1s0.4,1,1,1h8c0.6,0,1-0.4,1-1S69.2,62.6,68.6,62.6z"/>
</symbol><symbol id="quote-left-serif" viewBox="0 0 100 100"><title>quote-left-serif</title><path id="quote-mark" class="cls-1" d="M6.72,78.67A34.18,34.18,0,0,1,2.6,68.34,58.86,58.86,0,0,1,1,54.13,51.07,51.07,0,0,1,7.18,29.34,42.29,42.29,0,0,1,25.27,11.77l2.06,4.65a33.82,33.82,0,0,0-10.65,8.91A34.49,34.49,0,0,0,10.16,37.6,28.22,28.22,0,0,0,9,46.13a25,25,0,0,0,.46,5.68q6-8,16.72-8,9.15,0,14.65,5.81T46.34,66q0,10.08-6,16.15T24.81,88.23Q12.45,88.23,6.72,78.67Zm52.67,0a33.93,33.93,0,0,1-4.12-10.33,58.84,58.84,0,0,1-1.61-14.21,51,51,0,0,1,6.19-24.79A42.32,42.32,0,0,1,77.93,11.77L80,16.42a33.6,33.6,0,0,0-10.65,8.91A34.52,34.52,0,0,0,62.82,37.6a28.55,28.55,0,0,0-1.14,8.53,25,25,0,0,0,.46,5.68q5.94-8,16.71-8,9.15,0,14.65,5.81T99,66q0,10.08-6,16.15T77.48,88.23Q65.11,88.23,59.39,78.67Z" transform="translate(-1 -11.77)"/></symbol><symbol id="quotes" viewBox="0 0 100 100">
<g>
	<path d="M61.5,44.6V8.3h33.5V37c0,15.5-1.9,26.8-5.6,33.7C84.7,80,77,87,66.5,91.7
		l-7.6-12.2C65.3,76.8,70,72.9,73,67.6s4.7-12.9,5-23H61.5z M7.8,44.6V8.3h33.5V37c0,15.5-1.9,26.8-5.6,33.7
		c-4.8,9.3-12.5,16.3-23,21L4.9,79.5C11.4,76.9,16,72.9,19,67.6s4.7-12.9,5-23H7.8z"/>
</g>
</symbol><symbol id="return" viewBox="0 0 100 100">
<style type="text/css">
	.st0{fill:#FFFFFF;}
</style>
<path class="st0" d="M27,24l14.4,14.4l-3.8,3.8L16.8,21.4L37.1,1l3.8,3.8L27,18.7h23c22.2,0,40.2,18,40.2,40.2S72.2,99,50,99
	S9.8,81,9.8,58.8v-2.7h5.4v2.7c0,19.2,15.6,34.8,34.8,34.8s34.8-15.6,34.8-34.8S69.2,24,50,24H27z"/>
</symbol><symbol id="scroll-down" viewBox="0 0 100 100">
<path d="M95,49c0-0.3,0-0.7,0-1C95,22,74,1,48,1
	S1,22,1,48c0,0.3,0,0.7,0,1H95z"/>
</symbol><symbol id="text-icon-thin" viewBox="0 0 100 100">
<path d="M99,1v98H1V1H99z M6.4,6.4v87.1h87.1V6.4H6.4z M77.2,63.6v5.4H22.8v-5.4H77.2z M77.2,30.9v5.4H22.8v-5.4H77.2z"/>
</symbol><symbol id="twitter" viewBox="0 0 100 100">
<g id="XMLID_826_">
	<path id="XMLID_827_" d="M96.8,19.1c-1.5,0.7-3.1,1.3-4.7,1.7c1.9-2.2,3.4-4.7,4.3-7.5c0.2-0.6,0-1.3-0.5-1.7
		c-0.5-0.4-1.2-0.5-1.8-0.1c-3.4,2-7.1,3.5-11,4.4c-3.9-3.8-9.2-6-14.7-6c-11.6,0-21,9.4-21,21c0,0.9,0.1,1.8,0.2,2.7
		C33,32.4,19.6,25.3,10.4,14c-0.3-0.4-0.8-0.6-1.3-0.6c-0.5,0-1,0.3-1.2,0.8C6,17.4,5,21.1,5,24.8c0,5.1,1.8,9.9,5,13.6
		c-1-0.3-1.9-0.8-2.8-1.3c-0.5-0.3-1.1-0.3-1.6,0c-0.5,0.3-0.8,0.8-0.8,1.3c0,0.1,0,0.2,0,0.3c0,7.6,4.1,14.4,10.3,18.1
		c-0.5-0.1-1.1-0.1-1.6-0.2c-0.5-0.1-1.1,0.1-1.5,0.5c-0.4,0.4-0.5,1-0.3,1.5c2.3,7.2,8.2,12.5,15.4,14.1
		c-5.9,3.7-12.8,5.7-19.9,5.7c-1.5,0-3-0.1-4.5-0.3c-0.7-0.1-1.4,0.3-1.7,1c-0.2,0.7,0,1.5,0.6,1.9c9.2,5.9,19.8,9,30.7,9
		c21.4,0,34.8-10.1,42.3-18.6C84,61,89.3,47,89.3,33.2c0-0.6,0-1.2,0-1.7c3.7-2.8,6.8-6.1,9.4-10c0.4-0.6,0.3-1.4-0.1-1.9
		C98.2,19,97.4,18.9,96.8,19.1z"/>
</g>
</symbol><symbol id="vdeo" viewBox="0 0 100 100"><path fill-rule="evenodd" d="M234,746 L234,758 L221,758 L221,746 L234,746 Z M233,747 L222,747 L222,757 L233,757 L233,747 Z M239,755 L238,755 L238,749 L239,749 L239,755 Z M230,742 L230,741 L240,741 L240,742 L230,742 Z" transform="translate(-221 -741)"/></symbol></svg>